<?xml version="1.0" encoding="UTF-8" standalone="no"?>
<!DOCTYPE svg PUBLIC "-//W3C//DTD SVG 1.1//EN" "http://www.w3.org/Graphics/SVG/1.1/DTD/svg11.dtd">
<svg width="158" height="160" version="1.1" xmlns="http://www.w3.org/2000/svg">
  <path d="M16.484920632387155,138.97560107067358 C15.583264639195525,137.51669102752945 16.52451773404805,133.7068267961916 22.53178578486461,114.5 C25.456160376833758,105.15 30.77276210990516,87.6 34.34645630280106,75.5 C48.25791714270236,28.397851053561347 51.40554867566441,23.707787279877248 59.178179780222635,38.5 C61.20117865934508,42.35 63.22617865934508,45.476556474262836 63.678179780222635,45.44790327613963 C64.13018090110019,45.41925007801642 66.17790547432627,45.03346911721652 68.22867883183613,44.59061225213985 C70.98015466061061,43.99644129931215 73.73196890766789,44.32813587254278 78.72867883183613,45.85624746812363 C82.45290547432626,46.99520370199138 85.61724982663114,47.60598466279128 85.76055517029143,47.213538492123405 C85.90386051395171,46.82109232145553 87.9288605139517,42.675 90.26055517029143,38.0 C93.84699086653062,30.809269929777876 94.91394253719804,29.452191590808717 97.187384385877,29.189619788186185 C99.10864769722411,28.967722944303382 100.30398086844242,29.537884085788065 101.38035049403967,31.189619788186185 C102.92596824284928,33.56143701273161 108.98640816869617,57.39991342491588 110.99285818475798,69.0 C113.13941721069045,81.4101125570116 118.05625137138665,104.58093776313184 121.67671256887449,119.3481944623801 C125.55141636021327,135.1524642498737 125.52433198286163,139.5 121.55117039122092,139.5 C119.93961684146325,139.5 119.06344944884472,137.21832981696713 115.79113066812278,124.5 C113.66847538795062,116.25 110.13365974432362,100.275 107.9359847933961,89.0 C103.17552900496028,64.57685271338188 98.05244216050431,41.794743733337924 97.08451415149594,40.744056998555486 C96.70149406658459,40.328288347761 94.94949148562436,43.093141038574046 93.19117508269545,46.88817408925113 C91.43285867976654,50.683207139928214 89.26311380785857,54.068792155313474 88.36951981178888,54.411696345662804 C87.47592581571918,54.754600536012134 83.91297274136508,53.902247845199106 80.45184631322422,52.517579254967174 C72.85779487297827,49.479480323815906 70.12406736906675,49.385895887693664 65.02091862034678,51.98932811621439 C60.25281958871836,54.42183073351191 59.35843037370227,53.7746394908161 55.97797897026062,45.445743677243755 C53.98299910617207,40.53042987588235 53.49554636969027,39.96939624971334 52.45557829059442,41.39163734398886 C51.129165664823425,43.20561469796449 45.05086005139282,61.77327990146757 39.65307578644197,80.5 C34.90294717754141,96.9797858759407 23.18367498935175,134.99919801159606 22.00608191973123,137.75 C21.018562713304867,140.05679838961697 17.61946831946582,140.81133779022443 16.484920632387155,138.97560107067358 z" fill="black" />
  <path d="M56.18653673563382,80.75 C55.062486034992766,76.55408108106174 55.5905761241586,75.2630816070521 59.19301596522328,73.40018756524705 C62.94324641822322,71.46086802779027 65.0,72.9014387686849 65.0,77.46745715333009 C65.0,81.1148806513043 62.438344953875095,84.0 59.19985126273397,84.0 C57.627743871034234,84.0 56.82534367185048,83.13457403006092 56.18653673563382,80.75 z" fill="black" />
  <path d="M78.2,82.8 C76.34856803563959,80.94856803563958 76.77828164276751,76.22171835723249 79.0,74.0 C81.07396882309475,71.92603117690525 82.71532015904391,71.56979168250888 85.41821253176423,72.60698880418434 C87.33969301317126,73.34433004824768 87.62548765475319,80.97451234524682 85.8,82.80000000000001 C84.25308185968105,84.34691814031893 79.74691814031894,84.34691814031893 78.2,82.8 z" fill="black" />
</svg>