<?xml version="1.0" encoding="UTF-8" standalone="no"?>
<!DOCTYPE svg PUBLIC "-//W3C//DTD SVG 1.1//EN" "http://www.w3.org/Graphics/SVG/1.1/DTD/svg11.dtd">
<svg width="157" height="160" version="1.1" xmlns="http://www.w3.org/2000/svg">
  <path d="M73.49648482230945,150.6349792111448 C72.26830727772823,148.76054335373573 72.17278576610161,147.675738317437 73.03599297614963,145.4053312985219 C74.91090525481248,140.47393829371902 78.58241114822808,139.5620238658542 81.96104485258047,143.18856144663215 C84.62859274984459,146.05183800883876 84.55191963566064,149.50001250201106 81.77749375659457,151.44329603135094 C78.56985643796561,153.690012664302 75.2883434883988,153.36970119816203 73.49648482230945,150.6349792111448 z" fill="black" />
  <path d="M55.75,149.91990120052802 C53.99488481949922,148.89764045372402 53.471866237506056,145.53986946003818 54.606988804184326,142.5817874682358 C55.339577401267235,140.6726921863296 61.996239758069656,140.39623975806967 63.8,142.2 C65.57257348684902,143.97257348684903 65.28118558743368,145.4045502764142 62.547748899462434,148.35397727316484 C59.91277240990346,151.19716395764465 58.50120558543528,151.52233134734942 55.75,149.91990120052802 z" fill="black" />
  <path d="M101.65939268286928,138.25 C100.89381049759264,136.7375 99.70289334102047,133.7 99.01291011270888,131.5 C97.02436681966876,125.1595629209805 96.42123931838435,125.11497234615584 90.82108029691534,130.89435956812758 L85.66691789533004,136.21347643775448 L80.58345894766502,135.37708945285368 C73.9776231492629,134.29022416229924 62.74498237058485,134.2837213366649 56.781973962689065,135.36331024369483 L52.06394792537812,136.21749796649172 L47.92027648333383,129.60874898324585 C45.641257190209465,125.97393704246063 43.38525840071219,123.0 42.90694584000655,123.0 C42.42863327930091,123.0 40.34139714501076,126.15778337113296 38.268643319361786,130.01729638029548 C34.58644619216577,136.87362805791966 31.715348678464032,139.17817777459786 28.96971736705097,137.48128430356866 C27.28136581462038,136.4378256592079 28.25471567955499,133.89010885539915 34.13917326402986,123.95037406281345 C41.56128521783084,111.41330953943215 43.56444700582558,111.17983296224872 50.52591694373001,122.04043306431402 L54.852546665469276,128.79041483779923 L65.67627333273464,128.7412367160394 C71.62932299973059,128.7141887490715 77.9199313614669,129.0127506387696 79.65540302548197,129.4047075820352 C82.4724256914529,130.04093323535952 83.21761648192523,129.67767306387302 86.60432074108276,126.01729985600194 C91.06349057109779,121.19779849830316 95.9178023306925,118.0 98.77471640292275,118.0 C100.3749261816951,118.0 101.50328033986676,119.66674129249978 104.02132831874982,125.75 C105.7857082384721,130.0125 107.37255027587774,133.65734912378343 107.54764395742905,133.84966471951873 C108.57067796252683,134.97332259457582 115.38174451467108,131.31985604352434 118.31334251940513,128.0749274894883 C123.23930241875384,122.62247872003864 124.48980410755539,118.15271441283475 124.49527328500888,105.9783771744041 C124.49946383167413,96.65025996665403 124.20982058162575,94.8920390739979 121.9418567066359,90.4783771744041 C118.26908176359412,83.33082645252193 111.69875681967656,78.6817661376599 102.37469780971573,76.6329581610743 C95.19190444859194,75.05465794689556 94.78928277798848,75.06685217442107 91.04696153475112,76.97604201266864 C87.24256463856337,78.91690048599924 87.12128908580745,78.9187991225877 84.84205011180585,77.07318337041207 C82.59551534135383,75.25404987565742 82.57767944727559,75.1241403011529 84.3114312467313,73.20836612696488 C85.53134849171931,71.86037274444708 88.37104232888167,70.88969941278654 93.18484238132527,70.17522803422705 C103.31935358731079,68.67104877595236 108.67016192960351,65.15967614079298 112.5,57.5 C115.14080122074401,52.21839755851198 115.5,50.46265090751395 115.5,42.83614183237445 C115.5,34.800304557297665 115.27972943675513,33.85887688771735 112.46125886718266,29.848682496077323 C108.56104834232067,24.29935991599818 100.91008583463562,20.39145526958538 91.0,18.88685211712972 C76.25242493171949,16.647795028314185 54.47740502569566,19.77122104330192 46.07642779333318,25.330724716192947 C38.5556441449137,30.307743836699334 34.691430954319294,43.283319985775 38.70606254728045,50.079549581610685 C41.28114407588106,54.438815155829104 46.19722634814336,56.2928518531141 55.475514986367244,56.4039311711675 C63.2785142851885,56.49734838146137 63.5,56.567017273599774 63.5,58.92805324087648 C63.5,62.085250872087244 59.62109536160318,63.21159485102429 51.5,62.412575034335894 C42.74163280144397,61.550855199525536 35.94015740913915,58.017514959745604 33.012451218367296,52.80836473035635 C27.920652715130306,43.74873182568016 31.30493347826436,28.88662014290777 40.03402031906521,21.97305540860946 C51.5109278173202,12.883176434343257 81.9981480507423,9.308135411736622 100.08513226979079,14.931246183849922 C116.76585985343047,20.11716207929633 124.59458206929276,32.150843128805654 121.9949423528323,48.609241024493926 C120.67825734362181,56.94521375473812 117.93016425378988,62.94123650923021 113.10986392402715,67.99545928314134 L109.5,71.7805048627466 L113.79539814628703,74.05329763648399 C119.89937575630078,77.2830509051271 125.88863325722917,83.6038429023373 128.9056733757069,90.0 C131.14787676736563,94.7534950066217 131.4929340043255,96.78941771583523 131.44794009878763,105.0 C131.3470595874357,123.40888736868456 126.87969317786066,131.89003836364293 114.25288321990374,137.64426070898116 C105.2959924195979,141.72604711104827 103.46347883075421,141.8141899082199 101.65939268286928,138.25 z" fill="black" />
</svg>