<?xml version="1.0" encoding="UTF-8" standalone="no"?>
<!DOCTYPE svg PUBLIC "-//W3C//DTD SVG 1.1//EN" "http://www.w3.org/Graphics/SVG/1.1/DTD/svg11.dtd">
<svg width="158" height="160" version="1.1" xmlns="http://www.w3.org/2000/svg">
  <path d="M75.07066311559987,149.5851438455257 C73.50581170264095,147.69961324240145 74.52513323211771,140.63899384449425 76.6122606134999,138.9068319658329 C78.50625377462612,137.33495725353075 82.81371230884046,139.4970370121135 84.30385276229299,142.76753905426756 C86.46009418935724,147.4999734863722 78.32519882848916,153.50661947880027 75.07066311559987,149.5851438455257 z" fill="black" />
  <path d="M100.25,148.4762918894956 C97.61223977602856,146.61262656897526 97.39239881182927,144.31248469823066 99.55670396864906,141.2225062434054 C101.3919792909306,138.60228368067988 106.11448458512109,138.22809291158555 108.04165845924629,140.55019537263246 C108.97636085540758,141.67644286052857 109.07821714531819,143.11221439885156 108.41410317468846,145.80019537263246 C107.69666440810862,148.70400682624614 106.9621383735604,149.56088504501494 105.0,149.78299585814466 C103.625,149.93864358012425 101.4875,149.35062679423217 100.25,148.4762918894956 z" fill="black" />
  <path d="M42.95641136517399,134.04024291946706 C26.50173433400946,125.54052678735458 19.0,112.19822325185086 19.000000000000007,91.4322675068391 C19.000000000000014,80.11795847516535 21.278957397234755,71.43794384830927 27.51516490711005,59.0 C36.927135341681705,40.2280846040208 53.80083024415792,26.85047872912388 73.63152080098017,22.438568902644995 C80.66838738707533,20.873014705232865 82.12459616646046,20.853071195345983 90.41839787514925,22.208664198293533 C100.99603429413207,23.937542030310482 108.48164012862917,27.29566578950212 116.41248518685819,33.86989297922578 C123.78682223378384,39.982806138433425 125.41245909577923,42.36079603803808 124.00932111056161,44.982583345600894 C123.41549236541593,46.09216250552041 122.31701689848155,47.00000000000001 121.56826451737413,47.0 C120.8195121362667,46.99999999999999 117.12284482758629,43.92134664916339 113.35344827586212,40.158548109251996 C103.78830060823088,30.61014342857794 98.43779978880238,28.559533370532165 83.0,28.525415355615067 C71.76945457517203,28.500595502943487 71.31768875278375,28.587053722292964 63.71917333692218,32.21534907406895 C49.63218002195839,38.94189624386071 39.838536301812596,48.45293569827635 32.95237540229408,62.094343797998455 C26.341691496287734,75.190035039602 24.16258190682661,86.74443831241763 25.920212772960596,99.38133628901669 C27.78510008939627,112.78937958737254 34.40576771891776,123.13494090443098 44.74470309538937,128.79678648087832 L48.93879964548545,131.09357296175665 L55.497729783405845,118.00453045860642 C59.10514135926206,110.8055570818738 62.753805096028245,104.64796825105039 63.605871420664016,104.3209997234433 C66.00951615367019,103.39863469560633 67.67783869382939,105.80004053226926 70.9730854729801,114.92546642536101 C72.64582332726548,119.55772808917018 74.21189128616173,123.54522461949503 74.45323649274957,123.78656982608291 C74.69458169933739,124.02791503267079 77.21938289876428,123.66705976391992 80.06390582480932,122.98466922885878 C85.19582949283848,121.75353971126742 102.01986807717373,122.09629185821986 106.67848972988241,123.52688183304309 C108.66508900913944,124.13693545507176 109.04948074169387,123.54862564305131 111.04240382197179,116.84793100824353 C113.55387504678801,108.40375073448544 116.3014265991075,104.0 119.05837813890093,104.0 C121.69439214216665,104.0 127.260229407687,111.84158252631542 131.0936581104217,120.95623436722379 C134.38694913315902,128.7866137509921 134.22976386542848,131.2287039847586 130.39787245410457,131.76622553636975 C128.88016787669207,131.9791227278004 127.71960994441666,130.2201513558999 124.60414008980442,122.98509614864783 C122.46141713919685,118.00905094039742 120.3575298658971,113.72096560911761 119.92883503802719,113.45601763469273 C119.50014021015727,113.19106966026783 118.441708027625,115.56757788474269 117.57676352128881,118.73714702241463 C116.71181901495262,121.90671616008659 115.20500106632619,126.075 114.22827919100787,128.0 C112.25401419438555,131.89103614297505 110.92601310679443,132.11387655085338 104.5,129.63241862008613 C99.39349121652705,127.66049816043383 85.84831445175514,127.6020382305442 80.5,129.52883648589057 C71.73798931838303,132.6854621942248 69.38872586549951,131.18788191032348 66.01929083486476,120.29784771960377 L64.24285780870981,114.55640554414609 L59.51206654934573,124.02820277207304 C52.25067434594828,138.566665953447 52.00581803228295,138.71474292264506 42.95641136517399,134.04024291946706 z" fill="black" />
</svg>