<?xml version="1.0" encoding="UTF-8" standalone="no"?>
<!DOCTYPE svg PUBLIC "-//W3C//DTD SVG 1.1//EN" "http://www.w3.org/Graphics/SVG/1.1/DTD/svg11.dtd">
<svg width="158" height="160" version="1.1" xmlns="http://www.w3.org/2000/svg">
  <path d="M66.0,136.15365536095948 L66.0,133.30731072191898 L79.75,132.69410173822672 C96.81638232259048,131.93299199572928 113.48665446907539,128.97511184615223 120.75704789933123,125.41803978144796 C129.21423175333427,121.2803252654835 139.33028118995145,111.13402855549649 143.58829148702537,102.51853013094961 C149.39437460660812,90.77071918649781 150.00863799717123,76.81774153674769 145.1398819521973,67.27419127776938 C141.00968074983595,59.178328106494035 130.40353194945772,52.192280928270414 118.72564637602895,49.87568976841437 C115.54975188284486,49.24567425222486 112.62475188284486,48.22972120547648 112.22564637602895,47.61801633119575 C111.82654086921302,47.006311456915014 110.32044794507163,42.465053157725414 108.87877321127029,37.52633122188552 L106.25754642254057,28.546836793085717 L103.02019339786213,35.02341839654286 C97.39559264689349,46.27587849984992 95.33336870813838,47.475886313611426 86.8757265232314,44.41788135203829 C81.0954674784292,42.32792998595581 69.57069458501157,42.31251264240623 64.78211863089665,44.38832547737803 C58.904547848068766,46.9362096471937 57.84214812434654,46.5041351399004 52.76253508924282,39.500000000000014 C50.16983574267452,35.92500000000001 47.6846249738838,33.000000000000014 47.2398444919301,33.00000000000001 C46.79506400997639,33.0 46.44664334758379,41.2125 46.465576353279864,51.25 C46.48450935897594,61.2875 45.853856788619076,84.0659422105503 45.064126196931284,101.86876046788959 C43.857320405834415,129.07366350309516 43.363689351072175,134.56424246353896 41.96988403796336,136.2855191637749 C40.857172492139696,137.65965975564697 39.716860223222426,138.10532668150623 38.50422989840587,137.63999676483985 C36.821635183075806,136.99432459035725 36.742615077299426,135.75818374148344 37.35890396842905,119.72323806895453 C37.72298188795385,110.25045713102953 38.31218474139288,85.87103017528815 38.668243642738,65.54673372286256 C39.3130270760672,28.7416725459382 39.32483476417464,28.58425614491595 41.612357186228394,26.29673372286254 C42.87556073380299,25.033530175288128 44.70862037220639,23.999999999999975 45.68582304934705,23.99999999999998 C46.66302572648771,23.999999999999982 50.620980271942166,27.323561415485713 54.4812775948014,31.385692034412713 C61.17143178545918,38.42563686516086 61.64043932595089,38.72674399474191 64.5,37.8178034293297 C69.23035365841451,36.314212207119056 82.96630742127086,36.59438207528404 88.31273379913733,38.303507633372156 L93.12546759827467,39.84202434697228 L94.81273379913733,36.925312568549195 C95.7407302096118,35.3211210904165 98.075,31.243557217304833 100.0,27.864059517189943 C106.94168450546526,15.677354675037725 110.4477194032885,16.53985594177358 114.04493497913197,31.31918034848716 C116.91941898795228,43.12912911929579 117.2061624266118,43.61617583390516 121.71367413025654,44.34488104529152 C127.95536100229573,45.35394104347613 139.60771873895385,51.5550871600069 144.55114895381718,56.498517374869955 C147.1185566668946,59.06592508794724 150.53180074831025,64.04883521890365 152.27560404377348,67.77525721701369 C157.66056073723928,79.28264519684323 156.39746966605873,92.99836333077745 148.6633672002672,107.0 C144.3155282291428,114.87122511490286 132.7324555769454,126.0232734683494 124.9174493295955,129.86229502674004 C115.35394224451608,134.56024518972185 90.38024691217838,138.97313470890805 73.25,138.99201101772604 L66.0,139.0 L66.0,136.15365536095948 z" fill="black" />
  <path d="M60.57142857142857,66.42857142857143 C58.4640946602457,64.32123751738855 58.58442179103761,60.686068234419956 60.828740671584065,58.65498756211209 C63.20562380764205,56.50393788738563 65.29142744099039,56.55955479227231 67.3450124378879,58.82874067158407 C69.54436925208864,61.25900259592234 69.43334718593653,63.56665281406348 67.0,66.0 C64.59228138575583,68.40771861424417 62.67818235889223,68.53532521603509 60.57142857142857,66.42857142857143 z" fill="black" />
  <path d="M79.58465259739461,66.09354006722154 C77.2848511480153,63.552288070330036 77.84244593778489,58.160899751217315 80.59278518605348,56.34589829879992 C82.43632098686687,55.129313778120824 83.00204296721166,55.21376672310527 85.34278518605348,57.054994820790526 C88.65507393820282,59.66044153295424 88.71977874605297,62.37113034485612 85.54545454545455,65.54545454545455 C82.59095601968119,68.4999530712279 81.82607385237962,68.57028267543363 79.58465259739461,66.09354006722154 z" fill="black" />
</svg>