<?xml version="1.0" encoding="UTF-8" standalone="no"?>
<!DOCTYPE svg PUBLIC "-//W3C//DTD SVG 1.1//EN" "http://www.w3.org/Graphics/SVG/1.1/DTD/svg11.dtd">
<svg width="157" height="160" version="1.1" xmlns="http://www.w3.org/2000/svg">
  <path d="M58.02092638205835,142.94822326477703 C37.54709602893459,140.37637712893604 30.520366489036114,134.63167091417318 30.590424541922623,120.52240290263903 C30.64151667017185,110.23275737229855 35.16927878650935,102.27479906266026 44.25,96.51444284870689 C47.38512220681184,94.52567783093693 47.81903630491211,93.00036921924004 45.25,92.99921110497031 C42.004148362311625,92.99774788427085 31.434603202725246,87.30520837827112 28.74678684625941,84.11092012980038 C25.49494443694543,80.24632500262119 24.592923839341623,75.90133921018656 25.227967689258843,67.16095326215944 C26.067576594204166,55.60504909022059 32.338328821771775,45.20810904374435 39.56197839724089,43.39508841084709 C41.31990355813915,42.95387728141729 42.86203112947011,41.20220833918107 44.63686191535815,37.630639340994676 C46.03913334342528,34.80878770344761 49.731995905769885,28.55698985370487 52.84322316501283,23.737755230455264 C60.38098541535395,12.061898151629379 61.34562865567865,12.201898248054565 65.51310387654041,25.57655370761293 C70.12157903340724,40.366507852627024 69.25592159317351,39.17365151214302 73.68915287595891,36.84296399391616 C77.02601525522745,35.08867169529384 78.86815569420408,34.89738580006722 88.5,35.30502145096828 C94.55,35.56106750088911 100.13360053513257,35.93468378575249 100.9080011891835,36.1352798617758 C102.55247545668877,36.56125456034724 104.20966669983598,33.762976475017624 107.12420852780822,25.638798637011412 C109.51793421317686,18.96637658538892 113.94058127341168,13.379485281623554 116.15588025261057,14.229575262292784 C118.37931988877644,15.082789106146473 129.49390874356638,37.270511155115656 128.71485736896744,39.30068649435619 C128.35117519993986,40.24842703490972 126.9983260636265,41.0 125.65605281476198,41.0 C123.62241497586072,41.0 122.61709108315955,39.682366362875506 119.17075003620778,32.5 C116.9275277358559,27.825 114.90285726567609,23.999999999999996 114.6714823246971,23.999999999999993 C114.4401073837181,23.99999999999999 113.24027848346704,27.14272835588461 112.00519587969472,30.983840790854707 C110.77011327592243,34.8249532258248 108.59761722054279,39.12965550672991 107.17742686773998,40.549845859532724 C104.80281509267013,42.92445763460258 104.18953762607809,43.06642023832512 99.54763129495834,42.31600506867801 C90.45303079281412,40.84576295436912 76.90706727966428,41.414410940706375 72.69992958283768,43.44304867111797 C66.73933334613972,46.317185743131475 64.59708446445403,44.76557639559988 61.79249650161333,35.542904448339414 C60.531623425725996,31.39662025254483 59.05,27.941752731371878 58.5,27.86542106795507 C57.95,27.78908940453826 55.22416831598244,32.17564307466877 52.44259625773876,37.61331811268953 C47.788063746920145,46.712429952242346 47.13288716777359,47.52481168993446 44.21790254766063,47.811471069991846 C36.69453773903036,48.551318229769976 29.344099275721227,64.35975327333125 31.408022983874,75.361412479718 C33.06594900522173,84.19891795737603 48.67137186544201,90.75785902000091 62.0,88.21918480893979 C67.73925395381009,87.12604184957614 73.0,88.40302394953355 73.0,90.889300981855 C73.0,92.3486344462893 71.95519932970483,92.8451592791573 67.8651256722473,93.32956800108016 C62.626342974442046,93.95002431644465 52.21876771224206,98.28390961325925 46.93861224640173,102.04371193614831 C38.8505501150557,107.80292016133002 34.86943479242954,119.96507696990622 38.34749566095642,128.28924832619205 C41.33794708743073,135.4464060205497 53.06563246353406,138.00843138897724 82.70784166791594,137.98019143877207 C103.08320986004745,137.96077995094436 113.6288116560992,137.09031562797114 121.28750636588109,134.79571488055217 C126.48989067283692,133.2370426300635 133.56762529642208,126.78676294839009 136.5641788569057,120.87334912187083 C139.06213010987676,115.94387958991084 141.2831898879981,114.68963950012602 142.3930111958157,117.5817874682359 C144.65186426519426,123.46826420899053 139.98840989021585,131.35695637508923 131.0934252350869,136.69614950141704 C122.51690025241994,141.84418797597817 114.59451887744794,143.1144381760831 88.5,143.52544796197168 C75.85,143.72469569732596 62.134416871926256,143.46494458358836 58.02092638205835,142.94822326477703 z" fill="black" />
  <path d="M67.27767937915138,62.75 C63.81539711815802,58.27542612797772 65.94492880232029,54.0 71.63593553389717,54.0 C74.37504902128738,54.0 75.07587335780069,54.454122189775525 75.607864002588,56.57374174933405 C76.61811619995646,60.59890711382133 74.57369331611574,64.0 71.14388350659198,64.0 C69.54943676495277,64.0 67.80964490760451,63.4375 67.27767937915138,62.75 z" fill="black" />
  <path d="M92.2,60.8 C90.4067597869405,59.0067597869405 90.75199486494523,54.534416686788674 92.82874067158407,52.65498756211209 C96.4361067575526,49.39036612232562 100.0,51.30121792909494 100.0,56.5 C100.0,60.111904470328255 98.45519456663222,62.0 95.5,62.0 C94.345,62.0 92.86,61.46 92.2,60.8 z" fill="black" />
</svg>