<?xml version="1.0" encoding="UTF-8" standalone="no"?>
<!DOCTYPE svg PUBLIC "-//W3C//DTD SVG 1.1//EN" "http://www.w3.org/Graphics/SVG/1.1/DTD/svg11.dtd">
<svg width="158" height="160" version="1.1" xmlns="http://www.w3.org/2000/svg">
  <path d="M25.357338133089144,152.48882495692516 C25.038397382260758,151.65767868323402 24.98538979384609,142.99517868323403 25.23954349216766,133.23882495692516 C25.844984176523347,109.99740247957499 27.297860175962885,106.04926392714441 38.201562372123625,98.01500236158412 L41.90312474424725,95.28755073425077 L37.701562372123625,94.03236146481737 C27.526765731256187,90.99270753821652 19.575408225740482,85.47863766734167 16.913115597217736,79.61608752111933 C12.962430963876702,70.91641021039354 15.317625740697178,56.883280383701276 21.941510622216605,49.655032537393325 C24.03570437228224,47.369764641827 27.214080626987787,42.58444363430031 29.00456896600671,39.02098585400068 C30.79505730502563,35.45752807370105 34.67971892845353,29.270028073701056 37.63715035140205,25.270985854000692 C44.560367159768134,15.909404010391142 46.128924831380864,15.779124947112667 49.929802398474564,24.250000000000014 C51.472206997209746,27.687500000000007 53.278883594327944,32.1875 53.94463928095945,34.25000000000001 C54.610394967590956,36.312500000000014 55.388447419175364,38.000000000000014 55.673644728924806,38.00000000000001 C55.95884203867425,38.0 58.73644360138184,37.221476729137926 61.8460926460528,36.26994828697317 C65.95929445218742,35.011340498545174 71.07487766602254,34.53446061002177 80.61868264126298,34.51994828697317 L93.73736528252594,34.5 L96.92549779331034,28.350884500953526 C101.13559973167125,20.23064389170381 106.14066445240061,14.456264401441906 108.26302924475269,15.270692188501755 C110.67725759729693,16.19711853222222 112.97089690659317,20.191237175910008 116.54502978190567,29.692878195866953 C119.87927157669256,38.55678161328872 120.00818705216336,41.999999999999964 117.00581335148124,41.99999999999998 C114.60771414448116,41.999999999999986 113.72715094078038,40.6692653980374 110.55843927242731,32.25652702414172 C109.05787406109583,28.272616887419662 107.46675737485756,24.788471922161683 107.02262441412005,24.51398265690176 C106.57849145338253,24.239493391641837 104.37706815346387,27.54785977390531 102.13057263652303,31.865907950820585 C96.60009084479013,42.49619260448195 96.38215856567705,42.6416463513456 88.37114715607245,41.04931115739293 C80.4626919143449,39.47736087954109 70.38749806255974,40.24374506274801 60.242250227128366,43.18897636031911 C51.37714534222765,45.76257385017775 50.52199714039168,45.26356204346648 47.07760423210783,35.50690000374664 C45.80980174335689,31.915695183265928 44.37867405005429,28.734033433591105 43.89732046921315,28.43654056002481 C42.69438493051216,27.69308551083243 37.410874232453864,36.24689635896964 35.47736978915907,42.06813318541601 C34.448943777849145,45.164433993554326 32.71406440686323,47.74345316540867 30.54854447652244,49.39517573868988 C22.570028945174716,55.48068620652839 19.158361163283168,71.52405564467568 24.25,79.01408426659644 C27.106078956454112,83.2155042447858 36.439608447895516,88.3955756615907 44.07218877897274,90.01531950205828 C48.779762062198984,91.01433457930665 50.86949715611776,91.01647795735741 54.40742271020591,90.02592003875885 C59.50156221188575,88.59964915072284 61.0,89.15569064211408 61.0,92.47229888571945 C61.00000000000001,94.4997357939156 60.06293937990569,95.12510609266788 54.25,96.97707629932262 C44.94042472452766,99.94305528516647 37.57060705952643,104.97960737433243 34.835433605539215,110.2450402272004 C32.690761777108534,114.37370910104363 32.06062042428968,121.32512263385776 31.07303458029576,151.75 C31.01715378198151,153.47153787559134 30.405448450147134,154.0 28.468615203661287,154.0 C27.076353565674996,154.0 25.676278883917533,153.31997123061632 25.357338133089144,152.48882495692516 z" fill="black" />
  <path d="M57.52998756211209,68.03313588315191 C55.06530895908799,65.30969668220649 55.269784099670154,61.00971128211681 57.96786040063505,58.82494163819936 C62.458967754523286,55.18826353134209 66.18673846197478,60.22397233084672 63.595116802850356,66.42659603316008 C61.91395102851877,70.45019208649377 60.14212540966107,70.9195157152158 57.52998756211209,68.03313588315191 z" fill="black" />
  <path d="M85.6923495802063,66.71796702957886 C84.81108771783376,66.04808516331049 83.59752657568329,64.17464042373564 82.99554704209416,62.55475649719031 C80.85366501936574,56.79110496490714 88.02473165026325,51.341821904272926 91.40344325886048,56.16560844044425 C94.3322431302022,60.34705599298751 93.17826114459103,64.62738639314202 88.39732193771454,67.31586263669061 C87.79084900345754,67.65690191904753 86.57361144257882,67.38784889584724 85.6923495802063,66.71796702957886 z" fill="black" />
</svg>