<?xml version="1.0" encoding="UTF-8" standalone="no"?>
<!DOCTYPE svg PUBLIC "-//W3C//DTD SVG 1.1//EN" "http://www.w3.org/Graphics/SVG/1.1/DTD/svg11.dtd">
<svg width="157" height="160" version="1.1" xmlns="http://www.w3.org/2000/svg">
  <path d="M59.66666666666667,155.33333333333331 C59.3,154.96666666666667 59.0,152.95024007936337 59.0,150.85238536154824 C59.0,147.64871658579833 59.388411726491576,146.940618918643 61.42627118801144,146.42914875220157 C64.47866008522412,145.66304790629883 69.36338759562084,147.93285411184155 69.82542422121465,150.33201736370359 C70.3586932314081,153.10106064240188 67.1294729978598,156.0 63.511679104554574,156.0 C61.763588930382895,156.0 60.03333333333334,155.7 59.66666666666667,155.33333333333331 z" fill="black" />
  <path d="M88.74586274563333,153.75 C87.84584465711629,153.0625 86.8201781964164,151.29885884238064 86.46660394407803,149.83079742751255 C85.61665254142524,146.3017484356944 89.68138960902319,143.22393361799968 92.91002395227059,144.95184628060227 C97.34800399388561,147.32698111936853 97.65714414511459,152.76638051206365 93.44599262033586,154.38235097560224 C91.18877103091641,155.2485281712459 90.60474961874448,155.16995448932548 88.74586274563333,153.75 z" fill="black" />
  <path d="M29.711026204516145,138.41446482375926 C21.351305874134006,134.06366408337126 14.569778635652597,125.76009219686966 11.836735523195365,116.52847183528185 C5.657354300782703,95.65587701421101 12.75940038369808,64.8215198951673 27.930535702538776,46.65537099379906 C39.346029314223074,32.986284773538415 57.33688551456563,23.999999999999954 73.28738027028074,24.000000000000007 C81.13126173061202,24.000000000000032 94.15927860749359,26.553351607246285 99.09468036499374,29.057954084512573 C107.80792587509215,33.479725069307854 112.4832998343152,44.087643337016175 106.39266611492577,45.616295091965185 C103.67074149154428,46.29945468488652 102.0447789690363,44.93619003202176 102.01531277451707,41.94616678367305 C101.99106130153986,39.485296990618345 95.91372033577309,34.23962220488992 90.99627440805763,32.43505130611359 C84.03150351883079,29.879167001925158 68.64720136785019,29.379228598995496 61.43952880298823,31.474555857663567 C43.979650837118285,36.55028008149365 29.595018407576266,50.34293179988682 22.044827091879302,69.24802020670091 C13.753541609340662,90.00875043186052 14.401721267399509,113.66042886123049 23.592173235344507,125.70973255627577 C26.47289359514201,129.4865516503493 34.41950829863505,135.0077419409235 36.945780677547205,134.9876213812645 C37.80060130489624,134.98081314095995 39.5756168066985,133.31583842939585 40.8902595704411,131.2876775777887 C45.388750447227395,124.34764539624297 53.1816185913085,115.0 54.4688366726522,115.0 C56.55711289936039,115.0 57.758541630050445,117.12791215894043 60.5412727676577,125.75520359291666 L63.17307054221416,133.9145568590435 L67.33653527110708,132.20727842952175 C71.86862862461405,130.3488394305492 87.17068337200419,129.8384296773378 94.52749919393881,131.30030656106737 L98.55499838787762,132.10061312213477 L101.30785056643337,123.64756187462201 C105.81946337592566,109.79396865060033 108.17073403420154,109.67717069650514 114.32530066710312,123.00092787953395 C116.61159000211393,127.95041754579027 118.95989170755918,132.0 119.54374890142591,132.0 C120.12760609529265,132.0 122.5579340894139,130.0875 124.94447777725092,127.75 C130.86047781853725,121.95557429265418 134.2142997454154,114.378440122437 134.76865363643776,105.55469559212486 C135.15521400539376,99.40174889787404 134.9305983556459,98.14492188138169 133.01140720349593,95.72210024965682 C126.20905526721157,87.13468809981825 111.24125584328581,85.28608067315102 83.63702660036128,89.62408650127982 C73.35591549830416,91.239763558874 71.49643723169294,90.87214199393746 72.16585818192387,87.35621977685614 C72.65390862366067,84.79288890027264 82.40896986812675,83.1333442513197 101.5,82.36585458428175 C118.0722048825688,81.69962568413597 122.97197500422014,82.55557706983825 132.4552751262487,87.77349820454567 C139.47641873032126,91.63668645442566 141.5213353118518,95.567398934994 141.41720234362597,105.0 C141.35314171820545,110.80275712737064 140.75902496532737,113.74464477326153 138.79184110720928,118.0 C133.2446612631944,129.99949900232974 124.48510303013855,138.0 116.8943168506493,138.0 C113.22884951109464,138.0 113.14965726571369,137.91485094644727 110.84904008597576,131.5 C109.56690485224625,127.925 108.25854097538989,125.0 107.94156480407274,125.0 C107.62458863275559,125.0 106.5744842291823,127.50858025257263 105.60799946279877,130.5746227834947 C104.64151469641524,133.64066531441682 102.98904462333904,137.01095537666095 101.93584374485164,138.06415625514836 C100.04929616063978,139.95070383936022 99.94617113952617,139.94959854824762 94.97344620486902,137.98953347165363 C87.37924898273093,134.9961805403184 76.11771686113782,135.25744806989957 66.99582436851409,138.63861425940235 C62.877042829725895,140.16530237726386 59.51519157227578,140.9027617238745 59.01811044085581,140.38861425940235 C58.54559549798392,139.89987641673105 57.0730688002301,136.125 55.74582889029176,132.0 L53.33266541767661,124.5 L47.416332708838304,132.71431197372561 C41.93974679753591,140.31807387155527 41.239853407994374,140.9278157571334 38.0,140.9177505929687 C36.075,140.91177024800334 32.344961792032265,139.78529165185907 29.711026204516145,138.41446482375926 z" fill="black" />
</svg>