<?xml version="1.0" encoding="UTF-8" standalone="no"?>
<!DOCTYPE svg PUBLIC "-//W3C//DTD SVG 1.1//EN" "http://www.w3.org/Graphics/SVG/1.1/DTD/svg11.dtd">
<svg width="158" height="160" version="1.1" xmlns="http://www.w3.org/2000/svg">
  <path d="M41.30926030548268,151.15747983362476 C38.87024262953189,149.56876455285388 38.540611181505625,144.30547284373569 39.65594145008589,124.75860473768597 C40.291709247633136,113.61637213195868 41.094306861918206,90.775 41.43949170405271,74.0 C42.26403353133923,33.929616065407984 42.72118737831052,27.5658869374189 44.9751605803099,24.78234785985402 C46.51193180187967,22.884515736241333 47.00351570784966,22.758028347478387 48.385384400954706,23.904877501422682 C49.746256726605104,25.034301218079467 49.99999999999999,27.71575358110384 50.0,40.96745715333008 C50.0,55.576378867502044 50.146018129939236,56.8221694672137 52.061498824238654,58.555655671020425 C53.19532317756992,59.58175260840495 56.38791904023508,63.47649701135539 59.156156296827916,67.21064323313252 C61.92439355342075,70.94478945490964 64.48421908251336,73.99322464782476 64.84465747258926,73.98494366183279 C65.20509586266516,73.97666267584081 67.3,73.32141444666681 69.5,72.52883648589057 C74.2094570474343,70.83219472997291 86.8104196382021,70.60062763554643 92.5,72.10616693716013 C101.2406776923337,74.41906752942597 101.46137493117521,74.39495562515904 104.18047108684698,70.83003678656522 C105.58278405576702,68.99150970465979 109.20330251668783,65.01408878766001 112.22606766667099,61.99132363767683 L117.72200430300403,56.49538700134377 L118.19155960169553,40.20285033619221 C118.56975155688939,27.080420851034575 118.97085777090201,23.600570800525837 120.2530159901932,22.31841258123535 C121.12856158958662,21.442866981842432 122.55481073699954,20.998923247506006 123.4224585399997,21.331870949376622 C124.83570699548069,21.874185266081586 124.99999999999999,28.39382276673348 125.0,83.93343144517361 C125.0,143.37291091021905 124.92321696076637,145.97072551854922 123.13814034846092,146.92606952911186 C121.8417096711552,147.61989817161145 120.77995701470657,147.554660533003 119.64197279950142,146.71125328759985 C118.18393035910735,145.63063763238887 117.98028824125635,141.13194241376772 117.75383245104051,105.0 L117.5,64.5 L110.66699704944011,73.25 C106.90884542663217,78.0625 103.17812379827231,82.0 102.37650454197373,82.0 C101.57488528567515,82.0 99.6997366134271,81.12352299069505 98.20950749253362,80.05227331265567 C94.70885194112908,77.53583065307292 84.01777583834088,75.67234428724203 77.90477096908211,76.5130973392125 C75.25301038832411,76.87780763293055 70.99752877900598,78.51825048910102 68.35363373939475,80.19495905903202 L63.58515818991105,83.21903667918647 L61.54257909495553,80.66553009472145 C60.41916059272999,79.26110147326568 57.475,75.16855623091047 55.0,71.57098511170986 C52.525,67.97341399250926 50.1625,65.02320870270157 49.75,65.01497335658166 C49.3375,65.00673801046175 48.99514287579615,68.7125 48.98920639065811,73.25 C48.979274594164686,80.84128095851574 46.94095880635521,119.86174349482177 45.41426502747791,141.68682728934587 C44.79292797468152,150.56924590501373 43.827089490622306,152.79753096578509 41.30926030548268,151.15747983362476 z" fill="black" />
  <path d="M66.010777410693,105.51298598545254 C64.70491154798981,103.93951387985094 65.34700576005407,99.49173621239397 67.20283864975875,97.25559437883412 C67.77596657937782,96.56501747047535 69.53121589623865,96.0 71.10339268722726,96.0 C76.13233207023896,96.0 76.38696470768896,103.59139605603646 71.43372509059833,105.84824305809771 C68.15343341374493,107.34284396762152 67.49567670644855,107.3021801808367 66.010777410693,105.51298598545254 z" fill="black" />
  <path d="M90.22250624340543,103.44329603135094 C86.39477176133941,100.76224643842073 88.01025104197349,94.0 92.47847978983894,94.0 C96.69431583051428,94.0 99.72569019367265,100.87430980632735 96.8,103.8 C95.16872982870055,105.43127017129945 92.88382698443948,105.30735763824562 90.22250624340543,103.44329603135094 z" fill="black" />
</svg>