<?xml version="1.0" encoding="UTF-8" standalone="no"?>
<!DOCTYPE svg PUBLIC "-//W3C//DTD SVG 1.1//EN" "http://www.w3.org/Graphics/SVG/1.1/DTD/svg11.dtd">
<svg width="158" height="160" version="1.1" xmlns="http://www.w3.org/2000/svg">
  <path d="M58.64582477965232,150.23594944987943 C58.347232730695126,149.75281736589622 57.835796301671124,143.98958379622565 57.509299381821215,137.42876373950043 C57.182802461971306,130.8679436827752 56.205064951773586,114.92500000000001 55.33654935915961,102.0 L53.75743009986148,78.5 L50.04399910160653,74.0 C45.827751017240864,68.89067754630109 43.876235188109966,65.57979755323252 41.00639955257695,58.66709463198483 C35.904319346866906,46.377483232027 40.695254439750116,44.66831558567126 58.354602803607314,52.47811750242397 L63.93344264164532,54.94534523714255 L71.71672132082266,47.212722998285564 C79.74212979774077,39.23954683146642 88.53758646248363,33.718125312399636 95.17376887955638,32.487365111669014 L98.84753775911277,31.806020290283712 L99.54609083984133,24.153010145141856 C99.93029503424205,19.943854565313835 100.65543172976128,15.712500000000006 101.15750571877294,14.750000000000014 C102.20546466385598,12.741012267678055 106.55327887524926,12.38471302124341 107.25885767909898,14.25 C108.23275223778836,16.824613677584495 106.7342102329323,35.97569648368884 105.47722720906518,37.018899737831006 C104.7861350018733,37.592455327497476 101.80853934052787,38.1832145757986 98.86034796163088,38.33169806738905 C91.3959418498303,38.70763739414467 85.33962813618791,42.46417228947996 74.68175321823546,53.32889589568811 L65.8635064364709,62.318287750327414 L56.76280250957859,58.161427917153596 C51.75741534978782,55.875155008907996 47.493804487674886,54.17286217899148 47.288111704883185,54.37855496178356 C46.63779031464275,55.02887635202518 50.79550541409505,65.07780024874708 53.11617016814752,68.46458889198341 C54.34079301359732,70.25180901413785 56.62905697393724,72.56591201795932 58.20120119112511,73.60704001158666 C59.77334540831298,74.64816800521399 61.23987245279546,76.4 61.46015017886396,77.5 C62.38685149985586,82.12766468169409 64.15673709161189,127.45538872256486 63.84198212347628,138.5 C63.51702207086872,149.90270313445555 63.39270356748214,150.5152900884958 61.34435970705998,150.807185710379 C60.15875754594297,150.97613785108746 58.94441682860952,150.71908153386264 58.64582477965232,150.23594944987943 z" fill="black" />
  <path d="M81.57142857142857,77.42857142857143 C79.71624822851145,75.57339108565431 79.48837527885622,69.91162472114374 81.20000000000002,68.19999999999999 C83.1093007323508,66.29069926764922 86.7497312647035,66.80460383980851 88.44329603135094,69.22250624340543 C90.57899147481564,72.27163861070582 90.405675454244,73.68523363666509 87.54545454545455,76.54545454545455 C84.67432228179072,79.41658680911837 83.70302676717898,79.56016962432184 81.57142857142857,77.42857142857143 z" fill="black" />
  <path d="M98.31772919257797,65.79825707299742 C96.40494244261642,63.33286654849764 96.21937316433011,61.383544483105474 97.58767091961442,58.12932224902187 C98.7296431693494,55.41336991230125 99.4219795767901,54.916985517390735 101.6989050316084,55.181690960120704 C103.4323795874485,55.38321716678406 104.99128128607626,56.492120010525056 105.94792425208647,58.204171146553115 C107.34187618533421,60.698850013882904 107.2978125124368,61.124935299644854 105.37914093796118,63.704171146553115 C103.06011900225229,66.8215908164524 99.85022831257288,67.77349493436154 98.31772919257797,65.79825707299742 z" fill="black" />
</svg>