<?xml version="1.0" encoding="UTF-8" standalone="no"?>
<!DOCTYPE svg PUBLIC "-//W3C//DTD SVG 1.1//EN" "http://www.w3.org/Graphics/SVG/1.1/DTD/svg11.dtd">
<svg width="157" height="160" version="1.1" xmlns="http://www.w3.org/2000/svg">
  <path d="M68.75,147.83771929824562 C63.374871596853936,145.87455437907425 66.69112468006418,138.0 72.89301119581566,138.0 C77.33370383322541,138.0 78.59829603156089,143.4017039684391 75.0,147.0 C72.76962282623025,149.23037717376977 72.61853306372998,149.25062850333998 68.75,147.83771929824562 z" fill="black" />
  <path d="M47.79698751633939,143.31972345514856 C43.566323119725986,142.2061108366147 45.138848350791235,133.50522338520022 49.78136576112577,132.34002568761215 C53.279106901083026,131.46214854406827 55.4416425608179,133.1109564003178 55.820334964717475,136.9443890060657 C56.3378609574214,142.18320814878976 53.13819314994465,144.72565723626528 47.79698751633939,143.31972345514856 z" fill="black" />
  <path d="M101.0,130.5 C101.0,125.275 100.7018175111283,121.0 100.33737224695176,121.0 C99.97292698277522,121.0 96.41060866313043,123.7 92.42110931440777,127.0 C88.4316099656851,130.3 84.64302603572793,133.0 84.00203391450293,133.0 C83.36104179327792,133.0 80.92942061496424,131.43721504845587 78.59843129602807,129.52714455212413 C71.82260853280594,123.97486722366767 63.39931244486626,120.49285229843 57.25453068274273,120.7040211901591 C52.40175721735569,120.87078948790645 51.96119942883845,120.69358755748691 51.36974134478551,118.33703084751195 C51.01811533340054,116.93604122732977 50.99914507884241,112.91207716929233 51.32758522354523,109.39488849631763 C51.81424915553277,104.18331830083886 51.6546825453492,103.0 50.46525538453581,103.0 C48.346774188244304,103.0 41.68104105252706,109.32019335608423 39.47062422313512,113.42468898830349 C38.426365738686215,115.3637596338647 36.98307209469255,117.17625424362139 36.263305014260304,117.45245478776278 C34.44701723957978,118.14942980276744 30.714148759099647,114.18729968403306 31.429868746639364,112.32216329395133 C33.034832810529856,108.13969398688938 40.90675409347172,101.34225279695688 53.397673111802014,93.35286051805637 C58.68426431150978,89.971471938828 59.25778379662341,91.13591331480433 58.52781431812288,103.76880773571294 C58.07169885672867,111.66236854509518 58.23116429278216,114.12988394820091 59.21722470538502,114.43651599733184 C59.92275111742326,114.65591128658012 63.174406576038464,115.63638382905293 66.44312572452992,116.61534386949361 C69.71184487302139,117.59430390993431 74.88684487302139,120.08137868659152 77.94312572452992,122.14217670650962 C82.52324232149392,125.23047116392462 83.78708718404808,125.67911214350535 85.13326833559562,124.6945410986349 C86.03156592017321,124.0375434943857 90.4314775617404,120.65782853822802 94.91084976130048,117.18406341828448 C100.41982897451962,112.9118353057704 103.77429224791862,110.9703574811343 105.27758142570485,111.18406341828448 C107.30432065787464,111.47218243980748 107.47707606190251,111.98426358298902 107.23964249230136,117.0 C107.09644586306709,120.025 106.73137305826438,124.4125 106.42836959273978,126.75 C106.08565374769172,129.3938584998124 106.2729997579558,131.0 106.92410458466256,131.0 C108.82141163797789,131.0 116.98455298165628,119.60513098743695 119.07934517406268,114.03258898736755 C121.04292433452568,108.80909837965658 121.13050847418323,106.63529557726794 121.04252037397995,65.30737723275362 C120.95241356515734,22.984303672790745 120.99467094921528,22.00532905078478 122.99813002631494,20.001869973685096 C124.63087663858282,18.3691233614172 125.4482128901709,18.169508742188455 127.03144685907667,19.016829848233314 C128.97602992143206,20.05753912023677 129.00601669369306,20.92066321175129 128.48272715492968,60.78974811993431 C127.84430181459759,109.43095383061174 127.68188664620021,111.83081062328318 124.56812460262643,118.63216283066404 C120.7281516311418,127.01976865294912 107.53510924373862,140.0 102.84996150022315,140.0 C101.17983469292373,140.0 101.0,139.07650533128964 101.0,130.5 z" fill="black" />
</svg>