<?xml version="1.0" encoding="UTF-8" standalone="no"?>
<!DOCTYPE svg PUBLIC "-//W3C//DTD SVG 1.1//EN" "http://www.w3.org/Graphics/SVG/1.1/DTD/svg11.dtd">
<svg width="158" height="160" version="1.1" xmlns="http://www.w3.org/2000/svg">
  <path d="M52.60404411890591,136.1683469207193 C52.32134969049172,135.71093772711492 52.44854370432292,111.3821860658151 52.886697482975244,82.10445434005305 C53.66491127584439,30.10368254940242 53.73134471445052,28.82421084110552 55.75839333334504,26.797162222210538 C57.01513406005206,25.540421495503235 58.48344408732291,24.97153729445313 59.48169321695115,25.354601427681217 C60.95158517598886,25.918651896162373 61.09585784632755,28.152093319262747 60.81497024205039,45.994658406831626 C60.64173660892268,56.998819243304155 60.73516822847396,66.00172326214216 61.022596063275465,66.00111178202721 C61.31002389807697,66.00050030191224 62.362158039782564,64.4829861146806 63.360671933732334,62.628858032623555 C69.25012554902989,51.69280456129863 98.6490848008304,32.36421852468805 120.51918848530704,25.04952417152846 C127.83104664187333,22.603993581433354 129.60496450164862,22.52817070195818 130.410264247668,24.62674820065893 C131.3875204605498,27.173437068942775 129.54663052791224,28.54793326166898 121.22897896136104,31.48193353609122 C111.73077818259098,34.8323652617356 96.3857524509618,42.610081331950276 86.35645735846748,49.15727513689915 C76.44691039499624,55.6262965278086 69.85631488025338,62.36068314258472 66.04393175835342,69.91297167565762 C64.33272188407467,73.30285939102338 62.49779683533113,75.80765536372677 61.96632053892331,75.47918494833183 C61.43484424251549,75.15071453293689 61.0,75.72024860606598 61.0,76.74481622195202 C61.00000000000001,78.83056397646172 66.88903054312719,85.0 68.87997950259495,85.0 C69.58660026155901,85.00000000000001 74.89496311620255,82.27514768803849 80.6763414018028,78.94477264008552 C86.45771968740304,75.61439759213255 91.93315217065205,73.0392391980957 92.84396914235617,73.22219843111475 C94.25463240123766,73.50556366903979 94.45010247561069,74.74204724067758 94.1632324702791,81.56745249045446 L93.82646494055821,89.58005339885044 L99.61460754338088,91.40460462241128 C107.86199761940617,94.00436532061131 112.61043338422931,97.33682810526012 116.06317212853642,102.94824384503534 L119.07087321665416,107.83638119809473 L129.5767512843929,102.91819059904736 C140.66129544714582,97.72910497055688 143.69569257855008,97.04341263492424 144.64355313092398,99.51349763986278 C145.43709091535578,101.58142395799908 140.28658048448034,126.49094505945 137.97805197638127,131.75 C136.48336249911736,135.15504960298946 135.60425194155027,136.0 133.55623043173318,136.0 C131.43279795836125,136.0 131.0,135.53327694803693 131.0,133.24339811320561 C131.0,131.72726707546872 131.46781591141524,128.91476707546872 132.03959091425608,126.99339811320563 C133.53306981026677,121.97477368518278 136.81351169739523,106.0 136.3506142740174,106.0 C136.1357960310887,106.0 131.89935226502078,108.03939760369848 126.93629479386655,110.53199467488551 C121.9732373227123,113.02459174607253 117.47224749064696,114.79186500032164 116.93409516705469,114.45926857321686 C116.39594284346241,114.12667214611207 114.07862624046102,111.29977454241359 111.78450271594048,108.17727389833135 C109.49037919141993,105.05477325424911 106.91286100212038,101.91281481878742 106.05668451749702,101.19514404174983 C103.0739700989105,98.69495043340761 96.47704417006307,96.0437719517478 93.18425854591067,96.02196200049093 C87.3055637076564,95.98302413373885 86.0,94.60969727288855 86.0,88.46481624151201 C86.0,85.4591673086804 85.76376614046968,83.0 85.47503586771042,83.0 C85.18630559495115,83.0 81.82253945448146,84.575 78.0,86.5 C70.49567665284187,90.27911663575989 65.04716369108984,90.96668134571065 62.919538707754526,88.40305007386682 C61.71609944750444,86.9529944740753 61.52733298999923,86.97599054989736 60.86737925492273,88.65305007386682 C60.46763445358664,89.66887253324008 60.10894215704608,100.0920836543402 60.070285262610376,111.81574145408933 C60.02861138185947,124.45437485294627 59.57860244510994,133.91887144194246 58.964816241512004,135.06574145408933 C57.928073505697235,137.00291297578084 53.58510852831925,137.75574248030293 52.60404411890591,136.1683469207193 z" fill="black" />
  <path d="M100.5003674890634,123.64090490960598 C98.5744047064741,120.70151417115075 99.41094075474798,118.35597466679395 103.05783610606687,116.47009178719239 C107.87318653543304,113.97997730372099 110.6472238435349,116.6619515097345 108.75651665592318,121.97964791262291 C107.12447255082752,126.56984311782816 102.96753546212209,127.40627917113373 100.5003674890634,123.64090490960598 z" fill="black" />
  <path d="M79.96491371115971,118.40771606686855 C78.4553301409194,114.4372103833932 80.70804471321624,110.5 84.48939309701058,110.5 C88.1963939911727,110.5 90.03253451914854,114.43841777152596 88.20031122148949,118.45970987375196 C86.54233213224576,122.09857759568848 81.35572698622511,122.0658322004596 79.96491371115971,118.40771606686855 z" fill="black" />
</svg>