<?xml version="1.0" encoding="UTF-8" standalone="no"?>
<!DOCTYPE svg PUBLIC "-//W3C//DTD SVG 1.1//EN" "http://www.w3.org/Graphics/SVG/1.1/DTD/svg11.dtd">
<svg width="158" height="160" version="1.1" xmlns="http://www.w3.org/2000/svg">
  <path d="M66.47742441563697,155.60588935367159 C64.62523913663888,152.7790973179134 65.29985576264185,148.94359695071776 68.09399905510898,146.41493202427608 C69.66362423824357,144.99444075636137 70.45733895018498,144.88734753011335 72.50406246130623,145.8198971697844 C76.12188872116846,147.46828912731792 76.30530296467603,153.2914713257971 72.83258204992734,156.25 C70.04696231449566,158.6231638864785 68.34113704964668,158.4502743568881 66.47742441563697,155.60588935367159 z" fill="black" />
  <path d="M90.75,155.91990120052802 C87.3930788494156,153.9646741245595 89.86937667947521,146.0 93.83419772524363,146.0 C97.03492622774213,146.0 100.14258215168081,148.96699614427484 99.4221270592963,151.33500657550326 C97.91701174289378,156.28205852519042 94.48608070399746,158.09596844273526 90.75,155.91990120052802 z" fill="black" />
  <path d="M33.854930734740364,144.29280541065896 C26.983981019293388,137.12270385613388 26.5,135.35964044465527 26.5,117.5 C26.5,89.40053387188809 28.124125741912366,38.60979460323616 29.12726484528008,35.33842820618502 C30.236676537299225,31.720493148541575 32.13944493341768,30.608024302533924 34.292240546045505,32.318683622866665 C35.57513292875928,33.3380984705188 35.66542029589799,36.72071717319356 34.951023361692684,57.0 C32.298061554219785,132.30850182371756 32.34701508055568,134.28910652120774 36.96462310859029,138.46798435328802 C38.77152175641491,140.10320515556646 38.96275804185566,140.01031048704976 41.3476250388929,136.33890351235317 C42.71914306862534,134.22750658055892 45.1559896531842,130.025 46.76283967124593,127.0 C48.9707613746541,122.8434433346391 50.30019221213909,121.42593242422154 52.205473102548524,121.19677048798567 C54.402214279943095,120.93255251143701 55.162274332097596,121.73616099804757 58.11328052323309,127.44307190465042 C59.975976235454894,131.04531391542395 62.026154870969464,133.9942671958304 62.669233046598805,133.99630141666478 C63.312311222228146,133.99833563749914 66.68731122222815,133.2617224502024 70.1692330465988,132.35938322267202 C77.88887066950164,130.35884093573435 95.01727683910033,130.0673591609089 100.1960954130691,131.84840263006132 L103.8921908261382,133.11952392979168 L111.07322545816966,125.55976196489584 C115.02279450578696,121.40189288420314 119.00250057722997,118.0 119.91701672804302,118.0 C121.02883558966167,118.0 123.21508995825621,121.32366111152807 126.51523728992072,128.03096867492866 C130.44175612037637,136.01133039898136 131.2294013957813,138.41335481492976 130.3681673120137,139.78096867492866 C128.01616154208068,143.51588320093765 126.18382531161448,142.31723690379272 122.22855749900326,134.45633829304342 L118.3677791349161,126.78323277490468 L113.43388956745805,132.91847166841228 C110.72025030535612,136.29285305984146 107.59477340952606,139.28848538702243 106.48838535450236,139.57543239548113 C105.38199729947864,139.8623794039398 102.68199729947864,139.29805992430497 100.48838535450236,138.32138910740372 C94.48211508520308,135.64719283313534 77.55093855384469,135.98891547457146 69.5,138.946828980266 C58.7575597554846,142.89359976616328 58.864268052429374,142.91270459877714 55.70818280483851,136.47757057676426 L52.92385145257981,130.8004281652423 L47.70323159724801,139.15021408262115 C41.349095381447604,149.31293011290472 39.369913357064235,150.04790290243722 33.854930734740364,144.29280541065896 z" fill="black" />
</svg>