<?xml version="1.0" encoding="UTF-8" standalone="no"?>
<!DOCTYPE svg PUBLIC "-//W3C//DTD SVG 1.1//EN" "http://www.w3.org/Graphics/SVG/1.1/DTD/svg11.dtd">
<svg width="157" height="160" version="1.1" xmlns="http://www.w3.org/2000/svg">
  <path d="M26.712576323551335,144.37924299021802 C26.320659345598102,143.98732601226476 25.999999999999996,122.55825989499657 25.999999999999993,96.75909606295534 L25.99999999999999,49.851525459244016 L31.749999999999993,43.822877033740426 C39.42417025253757,35.77681191895658 48.30371274294421,29.22125039412003 52.626405068149865,28.41030842567031 C58.286909943000325,27.34839131006526 58.71378554962312,28.68588296785037 56.03303276429063,39.08399428187394 C53.58036315319994,48.59741594916909 53.824872703216336,49.942332350081045 58.01480912206381,49.98468722548292 C58.847954139198904,49.99310925146731 61.100851292642254,50.842130539312194 63.02124724082681,51.87140119847157 L66.512876237526,53.74280239694315 L76.90736594506733,46.87140119847158 C82.62433528421505,43.09213053931222 88.31655908563543,40.00000000000001 89.55675217044595,40.0 L91.81164868828323,39.999999999999986 L91.2993737236545,54.24999999999999 L90.78709875902577,68.5 L97.11488483539165,61.5 C105.75634307378846,51.94054161459297 124.44183310030296,33.59081381382385 130.33979763310973,28.87211038205018 C135.67120013170137,24.606688451088 137.95344922518038,24.112629198426166 140.14263903240112,26.750000000000007 C141.39546077645355,28.259305166889817 141.48839911284372,36.253476102504635 140.8183581019848,84.87255691804485 C140.27016011966978,124.65054300120299 139.70494255454477,141.65059618502343 138.89828679202947,142.62255691804484 C137.57817164806,144.21319835721874 134.83035393751518,144.42960787456775 133.4500000000004,143.05164692300303 C132.85623402265344,142.45891030023157 132.7815667835602,126.42837928083391 133.2508784320765,100.30164692300302 C133.66386156971856,77.31074111535136 133.88886156971856,52.875 133.7508784320765,46.0 L133.5,33.5 L111.27493760631879,55.822818868630335 C83.62485103825048,83.59452376770955 84.61743243071753,83.30367518249605 84.22178044573619,63.75 C83.92269106450787,48.96858392458719 83.63649749390511,48.327528049904934 79.0,52.05353517729297 C77.625,53.15852009465642 74.12093426074763,55.67826657911131 71.21318724610585,57.65297180941495 C66.17349164453805,61.07552308827172 65.8377049905334,61.16310015926404 64.02938333663549,59.52659155418848 C61.45086018509659,57.193060173427725 55.28092800595091,55.09713395781564 50.833333333333336,55.043892824057785 C48.81666666666667,55.01975177082601 46.97905770949903,54.437500000000014 46.74975787296081,53.75000000000001 C46.52045803642258,53.0625 47.18022570876477,49.19180301702659 48.21590825594346,45.14845114894797 C49.25159080312215,41.105099280869354 49.94426963231678,37.332808896950354 49.755194543042656,36.76558362912797 C49.56611945376853,36.19835836130558 45.94385178142633,38.77055062930749 41.70571082672666,42.481566446909994 C37.46756987202699,46.192582264512495 33.89853747713638,49.2898726484315 33.774527726969744,49.36443396673 C33.65051797680311,49.4389952850285 33.31301797680311,70.875 33.02452772696975,97.0 L32.5,144.5 L29.962576323551335,144.79590965688467 C28.56699330150457,144.95865996817125 27.10449330150457,144.77115996817125 26.712576323551335,144.37924299021802 z" fill="black" />
  <path d="M60.55670396864905,77.77749375659457 C59.70051678589208,76.55511532272159 59.0,74.85524313225403 59.0,74.0 C59.0,71.57634228079418 61.921702605526775,68.0 63.90171640653696,68.0 C66.24677123807109,68.0 69.0,71.10850238485905 69.0,73.75616052255117 C69.0,75.68848592327822 64.80289503853943,80.0 62.92184527684777,80.0 C62.47720474009545,80.0 61.41289115140603,78.99987219046756 60.55670396864905,77.77749375659457 z" fill="black" />
  <path d="M42.65498756211209,74.17125932841594 C40.42968720143142,71.71233010790026 40.5681999607325,68.4318000392675 43.0,66.0 C45.50031592331007,63.49968407668993 46.10297021885265,63.50655599617575 49.365141308198716,66.07258014903289 C52.37399419769098,68.43934417684446 52.675098101690224,70.59114995888538 50.44329603135094,73.77749375659457 C48.55523504467569,76.47307841194657 44.905115885269105,76.65762313866057 42.65498756211209,74.17125932841594 z" fill="black" />
</svg>