<?xml version="1.0" encoding="UTF-8" standalone="no"?>
<!DOCTYPE svg PUBLIC "-//W3C//DTD SVG 1.1//EN" "http://www.w3.org/Graphics/SVG/1.1/DTD/svg11.dtd">
<svg width="158" height="160" version="1.1" xmlns="http://www.w3.org/2000/svg">
  <path d="M32.98532481785787,134.75 C32.9383998473691,117.96274021131381 35.30420641093952,35.008994091639515 35.90145256905178,32.5 C36.449661224309615,30.197009418402935 37.25134170265478,29.42549309821982 39.35196754278942,29.17931465567181 C41.522230156967716,28.92497527734428 43.889486812528624,30.364207358329104 50.79417814673465,36.13588885724721 C71.33572660161332,53.30671799899425 69.5868476389619,52.107578553566206 72.48241694596263,51.006685065229824 C79.39689141025485,48.37780655950614 88.92922037650159,50.6132823488289 94.72539628476676,56.223001242563896 L97.95079256953352,59.34463984787915 L103.22530081867457,56.47389269000254 C106.12628035570215,54.89498175317041 112.01960477365989,51.44291627611714 116.32157730302511,48.8026360743286 C124.83924119653712,43.575029624027266 128.41542453790404,42.24512003896462 129.4506760893821,43.92019223616216 C129.81855185745462,44.51542773254095 129.6319811153216,52.76438990974124 129.03607444019764,62.25121929660725 C128.23480656667547,75.00739727984592 128.2619321141091,86.14921988850182 129.14021955346192,105.02883992855527 C129.79340604088125,119.06970188926067 130.03295360271972,131.732566378764 129.67254746865848,133.16853879411826 C128.88451692680476,136.30830255953293 126.56485046582428,137.4219933229676 124.69915984653329,135.55630270367618 C122.68907795687223,133.5462208140146 120.73792310278132,86.8682541983548 121.87528345470068,68.0 C122.35600884196772,60.025 122.60642752844596,53.33819707808574 122.43176942465232,53.14043795130164 C122.25711132085868,52.94267882451754 118.82601215785088,54.764267443571676 114.80710461796832,57.18841266031082 C105.82783821803825,62.60457251898051 98.6346419240289,65.99999999999999 96.13980050073795,66.0 C95.10470251901646,66.0 93.18729823200981,64.42705528726955 91.87890208516762,62.504567305043444 C87.74999171236001,56.43776514381029 79.9439494285031,54.43847368966133 70.93000960371297,57.13911574982029 C67.25255310266108,58.24090851682237 66.97025031646294,58.143736959193156 62.3139900443239,54.17339212935989 C48.43448768153958,42.33848445109473 42.0546218236486,37.00017767711677 41.79200118207207,37.00176586023414 C41.63140053193243,37.0027370833629 41.43299396417422,51.9652370833629 41.351097698164935,70.25176586023413 C41.17828568946824,108.83877261903743 39.82952411252147,136.29555830365376 37.998442816055444,138.50187629186888 C37.31461008023856,139.325844331341 35.91021069106463,140.0 34.87755528455783,140.0 C33.28109813901405,140.0 32.99780290549963,139.21399639096575 32.98532481785787,134.75 z" fill="black" />
  <path d="M79.7756268669998,81.40689973055262 C77.38263021163027,76.15484417423181 84.41472488315577,70.18000776466872 87.9605958223377,74.45252087050699 C89.59953475242335,76.4273214705748 89.62102182466448,80.54678819124571 88.00255528455783,82.49692107046485 C85.90211803038964,85.0277931327444 81.13780190379025,84.39654827628037 79.7756268669998,81.40689973055262 z" fill="black" />
  <path d="M58.15500646234953,77.68677136117954 C56.86878773441994,76.1369726047359 57.7865187084394,68.85062095271516 59.40463457354649,67.76531277451707 C63.081506759783075,65.29914855231063 67.0,68.18694026193248 67.0,73.3628299744821 C67.0,78.02266733824503 60.90614708122473,81.00169301280066 58.15500646234953,77.68677136117954 z" fill="black" />
</svg>