<?xml version="1.0" encoding="UTF-8" standalone="no"?>
<!DOCTYPE svg PUBLIC "-//W3C//DTD SVG 1.1//EN" "http://www.w3.org/Graphics/SVG/1.1/DTD/svg11.dtd">
<svg width="158" height="160" version="1.1" xmlns="http://www.w3.org/2000/svg">
  <path d="M63.25,155.9148109906947 C61.51390169808674,155.25867186374518 61.0,154.2740000737373 61.0,151.6036527754834 C61.0,148.41672049202634 63.03677561999489,145.0 64.93656987962729,145.0 C66.65150062294624,145.0 71.0,149.2439093330066 71.0,150.91759258692082 C71.0,152.53778639886335 69.00823021022549,154.88935382411813 66.5,156.2304823937516 C65.95,156.52456254249205 64.4875,156.38251041111644 63.25,155.9148109906947 z" fill="black" />
  <path d="M85.55670396864906,152.7774937565946 C82.74458589508502,148.7626328057915 84.52139612160005,143.0 88.57142857142858,143.0 C90.66453959566176,143.0 94.0,146.68656149953173 94.0,149.0 C94.0,151.32078580659615 90.66215799709245,155.0 88.55670396864906,155.0 C87.76289115140604,155.0 86.41289115140603,153.99987219046756 85.55670396864906,152.7774937565946 z" fill="black" />
  <path d="M32.44638720381473,142.62412504818468 C19.48570814988091,133.8716631419804 13.992592768250663,121.87527763169761 14.007554157276846,102.35565547885196 C14.017056815749973,89.95785588161348 15.307041354842458,81.91241151457432 19.11520280608588,70.5 C22.831219233646426,59.363731433342394 29.35712966574789,48.70217596994779 36.39440456960992,42.270503153278156 C53.818296643783086,26.34604737387634 88.94282623621055,19.560315165683978 112.68796821269441,27.53129673263858 C131.10322444480803,33.71309459774698 141.08920189298445,45.07020483658626 147.19101496430628,66.77181250262365 C151.8713959788555,83.41797837464937 148.6799026277672,106.74701073359778 139.41530629511578,123.61033265665824 C134.0252892301061,133.42118567976394 120.92053405093041,145.3049893087765 117.69204172357672,143.30967131805357 C116.4203201451001,142.52370415832834 107.22344726061145,128.27938047921546 106.4845091583788,125.95119267993616 C105.46218398857823,122.73013129463972 104.45173007188244,123.66230610664809 101.11235701475579,130.907168238859 C96.73938847924302,140.39444432521105 96.14850011549363,140.7573735755197 90.48187606349777,137.43651069803246 C87.1087587764037,135.45973230628869 84.0210083888564,134.59136391243308 79.11756558759548,134.2405243660303 C73.14144888577525,133.81293539275268 71.56679510697556,134.11781542835487 65.1062936236265,136.95334743400855 C61.10312225682152,138.71035044127473 57.2220778936374,139.91546088689265 56.481750594328446,139.63137064649283 C55.7414232950195,139.34728040609298 54.36631905329812,136.37278633928918 53.425963390503156,133.02138383137327 C52.4846519908751,129.66657510286865 51.22621957280202,127.0912601423993 50.625968713825046,127.2913437620583 C50.026327304447044,127.49122423185096 47.47745479682044,131.66863565429028 44.96180758576591,136.5744802563679 C42.44616037471138,141.48032485844556 39.73812526339175,145.61630004608483 38.94395178283339,145.7655362288997 C38.149778302275024,145.91477241171455 35.22587424171663,144.5011373803928 32.44638720381473,142.62412504818468 z" fill="black" />
  <path d="M38.470887655611676,136.0917248749368 C39.231307606067745,133.69585376525757 48.159161900755194,117.71807421636287 49.929182060795355,115.58533039655698 C50.6528211143443,114.71339867845064 51.630643569502155,114.0 52.10212085003504,114.0 C53.296759690884166,114.0 56.41780132033384,120.40382897795541 58.569694079761724,127.27032375177752 C59.564293955026926,130.44400181525518 60.63049455423449,132.89603298415568 60.93902874466741,132.71928190488978 C70.6265027295805,127.16958422052217 80.16416620260426,126.20963954307935 88.58905434459996,129.93636814609707 C91.18506594481659,131.0847075093306 93.40921960100522,131.90629987050883 93.53161802501916,131.76212894871537 C93.65401644903308,131.6179580269219 94.7642037973353,129.4981487979112 95.99870102124632,127.05144177313599 C97.23319824515733,124.6047347483608 99.80611001965205,120.24903335740255 101.71628274234573,117.37210534878434 C106.92404616562621,109.52864686113233 108.98195761336972,109.44605699190814 110.98812036871614,117.0 C112.22721153727555,121.66563544965794 119.86076896770237,136.0 121.10629412303498,136.0 C121.49589617065237,136.0 123.92261347877204,133.6554500522916 126.4989992521898,130.78988900509245 C136.10982982488346,120.10033233834865 140.8938084603959,106.3324069670561 141.7147915957937,87.0 C142.33053871431161,72.50046478334491 141.04424337285067,65.71680128470365 135.55225145714235,54.5 C127.3578776027491,37.76387500418512 111.66994561981733,29.504077223660055 88.5,29.726684908039637 C68.45077017991265,29.9193099878338 51.991300537115904,36.07630680814165 40.00705265311615,47.866450593186435 C25.9020183670818,61.743031245974834 18.40152205116053,85.64974142405902 20.95849538616597,108.5808778404829 C22.64581585317431,123.71289946835408 26.275458305810048,131.75790432119203 33.36582973137923,136.08140063868288 C37.267034614036305,138.4602386334204 37.71886057743685,138.46115238563655 38.470887655611676,136.0917248749368 z" fill="black" />
</svg>