<?xml version="1.0" encoding="UTF-8" standalone="no"?>
<!DOCTYPE svg PUBLIC "-//W3C//DTD SVG 1.1//EN" "http://www.w3.org/Graphics/SVG/1.1/DTD/svg11.dtd">
<svg width="157" height="160" version="1.1" xmlns="http://www.w3.org/2000/svg">
  <path d="M39.9532036315006,150.25 C39.92746562882592,149.8375 39.76628480938035,143.65 39.59502403273267,136.5 C39.423763256084975,129.35 38.92527961384454,110.22204089716163 38.48728260553169,93.99342421591476 C37.55843880727299,59.578006592954104 38.19401801869962,54.74369743642521 45.56125999938655,40.18770956481691 C50.695691885846834,30.04324458554305 59.55993083191622,17.68910367450988 61.29505583928149,18.25942761595529 C62.93131410177098,18.79725472208561 66.5444520372081,25.25741530879111 69.16747856433457,32.3350361089147 C71.17872457395553,37.761910921139076 71.51081386425302,38.125883317982 73.91499631278955,37.53835179672732 C79.20878097311488,36.24466239450706 91.67314530016691,35.82677033955297 96.80491072141886,36.77092289951636 L102.10982144283773,37.74693108127438 L106.95652863221457,30.62346554063719 C113.53021269503014,20.961769451560418 120.04904422070503,14.728982001305113 123.12536105261697,15.164115901327122 C125.3349926389141,15.476660305006028 125.56948734723136,16.125386125082173 126.5,24.5 C127.05,29.450000000000003 127.88713572186342,34.09984110876551 128.36030160414091,34.83298024170114 C128.8334674864184,35.56611937463676 131.53346748641843,37.648375820647786 134.36030160414091,39.46021678839231 C145.9319786558299,46.877008037767425 149.36959351923093,52.95744195600234 149.3647493896943,66.0 C149.35931670386685,80.62721417823627 143.99470012326938,90.13744009489758 131.62532203693507,97.44790670914122 C121.69205458797421,103.31859960486638 113.9722368848788,105.39001352854189 102.5,105.26293549857098 C85.55315383843885,105.07521519205694 66.5,98.52898757043978 66.5,92.8941593696145 C66.5,89.40205482762121 69.30522905499853,89.40095427318003 74.977006016009,92.8908336495268 C83.42555267917604,98.08927656478508 89.193597978892,99.5 102.0,99.5 C113.18171391571626,99.5 113.71271988975201,99.39841928772378 121.18578600491765,95.82978553302044 C136.15865362233274,88.67975100090551 142.20801208579576,80.43786514985278 142.39514706259874,66.93331099494178 C142.57509395889412,53.9474830778672 137.8647883575872,47.055831443697286 124.89963978361533,41.33562126194782 C121.24447106718289,39.72296459330591 121.15857307717617,39.55778684135758 120.4844825298531,32.845483720687895 C120.10637658294377,29.080467674309553 119.45713319470529,26.0 119.04171944487871,26.0 C118.62630569505211,26.0 115.63447683138898,29.61140166406158 112.39321085896063,34.02533703124796 C109.15194488653229,38.43927239843433 105.55265956618122,42.296702001805556 104.39479903595827,42.59740281651734 C103.23693850573534,42.89810363122912 99.09433444074817,42.70133690526843 95.18901222487568,42.16014342549358 C87.49782311157735,41.094310398217374 76.16963884325985,42.05432396941325 71.53847892603292,44.16442163947086 C68.11338683473117,45.72499803302285 67.19409495105862,44.667334997078534 63.44271655056836,34.850090941683916 C62.00305530956577,31.08254092375777 60.67145959484105,28.00000000000001 60.48361496229123,28.000000000000007 C60.29577032974141,28.000000000000004 58.11642260115035,31.2625 55.64062000986665,35.25 C45.27757322061189,51.94060740853642 44.225707497742405,58.810477864630656 45.8317825777215,99.31278008555904 C47.15215299803272,132.61012868006893 47.31354976349684,147.01932747762802 46.393011195815674,149.4182125317642 C45.78702739316466,150.99738100798567 40.0461036736528,151.73889825959557 39.9532036315006,150.25 z" fill="black" />
  <path d="M70.03518375848799,66.06574145408933 C69.4658326913196,65.00189925383847 69.0,63.20189925383847 69.0,62.065741454089334 C69.0,59.929775286524354 72.23931980638164,56.0 74.0,56.0 C75.87329547285498,56.0 79.0,59.992795469350334 79.0,62.38499006651604 C79.0,64.83748320012894 75.37866674265996,68.0 72.57036705283296,68.0 C71.74536730811162,68.0 70.60453482565639,67.1295836543402 70.03518375848799,66.06574145408933 z" fill="black" />
  <path d="M97.49648482230945,62.634979211144824 C96.35276291892608,60.8894389543109 96.19569202380116,59.61549029395811 96.89682766910974,57.771363794792734 C98.34270561928294,53.968416590047795 104.19513421182545,52.46017008633033 105.39301119581566,55.58178746823579 C108.04194092184223,62.48478768171842 101.32762033698408,68.48203106043434 97.49648482230945,62.634979211144824 z" fill="black" />
</svg>