<?xml version="1.0" encoding="UTF-8" standalone="no"?>
<!DOCTYPE svg PUBLIC "-//W3C//DTD SVG 1.1//EN" "http://www.w3.org/Graphics/SVG/1.1/DTD/svg11.dtd">
<svg width="158" height="160" version="1.1" xmlns="http://www.w3.org/2000/svg">
  <path d="M53.37821996231847,151.36278192983139 C51.99403586556077,148.04996307886722 51.95951512726412,147.16794694627538 53.13340689888432,145.1077282411592 C56.34870703081934,139.46477065808298 63.33333333333333,141.37121654918522 63.33333333333333,147.8917866858467 C63.33333333333333,151.58566288364972 61.653101706619736,153.58567342255995 57.74481306343415,154.54390491705348 C55.254706638247605,155.15442748053272 54.834590414238555,154.84836704702025 53.37821996231847,151.36278192983139 z" fill="black" />
  <path d="M81.0,151.0 C79.9,149.9 79.0,148.1 79.0,147.0 C79.0,144.67921419340385 82.33784200290755,141.0 84.44329603135094,141.0 C86.21466033461328,141.0 89.0,144.8035811799756 89.0,147.22250624340543 C89.0,149.12887437063452 85.64982274974605,153.0 84.0,153.0 C83.45,153.0 82.1,152.1 81.0,151.0 z" fill="black" />
  <path d="M123.59207004803622,142.14584839133494 C120.20868622537725,136.78622169048464 116.8859281701402,134.40949137263556 110.73840486630002,132.95177069291105 C107.857282189835,132.26858953218525 105.16939074853268,131.21245792416516 104.76531277451707,130.60481156397753 C104.36123480050145,129.9971652037899 104.02373480050144,125.90979817877079 104.01531277451707,121.52177373060174 L104.0,113.54354746120347 L98.59329358830149,122.39276585658595 C91.06714543274255,134.7108988627433 91.49731390814746,134.39522387474335 84.1952508160393,132.95863071936637 C78.2962113661836,131.79806560371836 62.31559899890968,132.1276887749647 55.34477173707353,133.55371344757643 C52.20877367787452,134.19524571307434 52.16498237681723,134.14676763001407 48.1596398100007,125.59958982142847 C45.9431927947202,120.8698154196428 43.69253842665935,117.0 43.15818565875436,117.0 C42.19934012599682,117.0 36.52834460222438,129.72000485351896 35.84973010179273,133.39281670503573 C34.8721187435326,138.6838657181518 28.897472875132458,137.85500917554288 22.085641809778636,131.48333874012036 C16.38550790106904,126.15153083771936 12.754891821330324,119.7490439835227 10.470289730161305,111.0 C5.861094761555967,93.34876451140558 13.045319136158223,56.2811948790564 24.008917538485257,41.14638702187098 C27.671784808619567,36.089945668812156 44.63452301511281,24.785171399739546 52.5,22.1585766820483 C73.2344228784315,15.234530535640836 93.18302298627772,15.632081711716673 111.03775633425819,23.325162495073442 C116.9393020739156,25.867965416686086 126.4123601636125,33.42933018141211 130.18582110559643,38.6090867467531 C139.1872425039736,50.96516311868225 141.39253350486393,59.63422752051132 140.71510134681347,80.0 C140.0688857297807,99.42730363887193 137.1048175074037,109.0 131.73560641600344,109.0 C129.42845708410357,109.0 129.59217683944829,106.46368181277938 132.5747585500713,96.0 C135.18203236772416,86.85299707647845 135.17321545690518,66.02253481941065 132.55832029948937,57.163681322315426 C125.12363847032094,31.97614868440718 98.57633978549212,18.718932763093996 67.0,24.425103361250677 C62.875,25.17053344837594 57.23688822810015,26.648836113340096 54.47086272911144,27.710220394504354 C47.60940359352054,30.343111839297507 32.54677300622133,40.404183046017714 29.61970864527902,44.30952749146243 C19.60729198265694,57.66828253648687 12.348416117634656,91.78151853656641 16.076156817519077,107.95772707095279 C17.807346891275934,115.47007674876672 26.29237857216685,130.0 28.948171410296446,130.0 C29.37723343699121,130.0 30.534716434293692,127.8625 31.520355848746398,125.25 C33.61138744072314,119.70758767969667 38.813808588716526,111.2927177363292 41.77061572092287,108.67029580912484 C43.45815319942376,107.17360187924459 44.2265687032484,107.05088837318424 45.992626969107526,107.99605407361551 C47.958762335030926,109.04829778844658 53.24778861095865,119.15827030221364 54.556131742806876,124.36519148510008 C55.077383730961174,126.43966105861952 55.55888791866233,126.49856007613256 71.59188371900744,126.44905509339922 L88.09122234071738,126.39811018679845 L93.07484533063385,118.77469321978643 C100.15157599950112,107.94946250687465 106.76526205780758,100.82414128657537 109.38884311523701,101.19864355886341 C111.43153429070642,101.4902268833541 111.48873670725712,101.91138814532073 111.15269361459048,114.18525403833496 L110.80538722918094,126.87050807666994 L114.75165504447592,127.93312764805952 C120.40050447820529,129.4542048392347 125.12492154210749,132.9506779400871 127.71832185418029,137.52957120810365 C130.49094659812934,142.42490214321 130.54108378057268,143.6400532316802 128.0259783972435,144.98609678372372 C126.32417171975375,145.89687607760266 125.71274171907207,145.50520964254773 123.59207004803622,142.14584839133494 z" fill="black" />
</svg>