<?xml version="1.0" encoding="UTF-8" standalone="no"?>
<!DOCTYPE svg PUBLIC "-//W3C//DTD SVG 1.1//EN" "http://www.w3.org/Graphics/SVG/1.1/DTD/svg11.dtd">
<svg width="157" height="160" version="1.1" xmlns="http://www.w3.org/2000/svg">
  <path d="M29.422800571367382,151.65941733654546 C29.139864161592023,150.92209687164544 29.268693795462685,127.63459687164544 29.70908864663552,99.90941733654545 L30.50980655785886,49.5 L33.72506978999908,42.701478826552666 C37.82636886172181,34.02947701375342 44.380256026656504,24.66963630517428 47.53248576715533,22.98261414503648 C50.96027594839673,21.14811651253146 53.197781538026,23.405757549753602 56.6352543862984,32.16729912735213 C58.13165390004189,35.981370433530174 59.66446386907019,39.29262726663176 60.04149876191684,39.52564764535567 C60.4185336547635,39.758668024079576 64.05093798040585,39.24551554728174 68.11350837445538,38.38530880802714 C75.10460928075314,36.9050163992569 81.07995866951957,36.961310196937404 92.0,38.61034356990959 C95.32821760087124,39.11293707942597 95.63276701046652,38.90233653958566 98.20507653280902,34.31943895349072 C102.48645608886481,26.691615061311392 109.80543013591802,18.0 111.94723484521893,18.0 C114.20791973107978,18.0 114.56088065229083,18.99829503830463 115.94736964750817,29.313758792258135 C116.96316648703792,36.871276749987935 117.16319964749877,37.288809364792414 122.04714242248845,42.045918153151355 C129.4467582047727,49.25336895471368 131.51721546280044,54.431543744706225 131.42509429928367,65.5 C131.33269721433726,76.6016085099657 128.8104641692891,83.77002101645174 122.54459491153038,90.73917565824969 C115.5937018636898,98.47024162152623 104.83886608027363,103.0 93.43417856096434,103.0 L90.23567611556658,103.0 L91.57394523372548,106.75 C93.21334061166164,111.34379401634722 93.35080975549789,118.19635439706781 91.90782805032705,123.39338699579446 C90.8909252969533,127.05585668621417 90.99504880060402,127.42643819870787 93.66340498472977,129.6415858446565 C99.56011589776661,134.53676639647352 110.4972092495297,139.18994629833858 117.41080566611281,139.74490342805584 C123.83740450437315,140.26076906877657 123.99999999999999,140.34301419915212 123.99999999999999,143.07789334251328 C123.99999999999999,144.62013331031855 123.59217085843333,146.134018282341 123.09371301874074,146.44208216922988 C121.3273481052092,147.53375572232764 107.13066992202346,144.09469543978977 101.35778413492409,141.17668354823874 C98.13600286071583,139.54817461582147 92.72312751736833,136.16937051012772 89.3291722608185,133.66822998003045 L83.15834452163699,129.12070174348995 L84.6790521624277,123.31035087174497 C86.65130472208267,115.77472793416706 86.02866815738,107.58422371293558 83.2741673864854,104.82972294204095 C82.0457836120567,103.60133916761222 76.86508318278351,101.59870200300827 70.36136783026133,99.83818702070923 C59.12559146920043,96.79673278275001 52.81983176902598,94.23181191790238 52.32071611983124,92.5 C52.16220375239725,91.95 52.45074434582118,90.83800702302419 52.96191743855108,90.02890449560931 C53.97461478426261,88.42597195949777 52.92129960779286,88.21560319598736 69.9841584867389,93.42859708665806 C87.40704014630712,98.75158406636506 103.37476422961794,97.85752516602126 112.79798202574656,91.03138131607709 C121.51518398901892,84.71667270404016 126.16132083697376,72.22412849687282 124.19835758298257,60.37802342159929 C122.89629698083394,52.52033852807677 120.18144807258074,48.199057323584746 114.32422787193896,44.66116676658085 C110.33562625420717,42.2519631656171 109.99454478808369,41.71746165776506 109.92971473738963,37.7746187421805 C109.78513957632907,28.981826766015256 108.82997648389735,29.006357397529758 103.09273619822295,37.95020697684509 C98.56485683831878,45.0087699604084 97.5034375023688,46.094200846989345 95.65553512945402,45.55565326592144 C94.46999080825431,45.21014149225355 89.64043614175242,44.412675745243554 84.92319142611649,43.78350716145479 C77.61642303249363,42.808957525085454 75.01982765575603,42.89592228764873 67.38791826212994,44.37079576284801 C62.460762737573276,45.32297307740305 57.71871073675612,45.829289589130845 56.85002492698071,45.49594356668756 C55.35109174242127,44.920748934337894 50.0,35.254464926640814 50.0,33.12196651840034 C50.0,30.086506734312678 47.726822982383275,31.723094244597746 44.26988199925301,37.247399548826714 C36.97973990855324,48.897286202016936 37.28396363174985,46.457893790240945 36.568380903651175,99.00124022401332 C36.212596357656274,125.12555810080599 35.69377155457797,147.9625 35.415436896810505,149.75 C35.001331249080984,152.40943828646343 34.45762656410915,153.0 32.4233021450052,153.0 C31.055962689279756,153.0 29.70573698114274,152.39673780144545 29.422800571367382,151.65941733654546 z" fill="black" />
  <path d="M60.57142857142857,68.42857142857143 C57.91072809407594,65.7678709512188 58.19625869420854,61.55301729719328 61.26096463769669,58.25 C65.32143180082228,53.87379114936412 71.0,56.64338772055009 71.0,63.0 C71.0,65.88267595906154 70.42592127699534,67.28869245232735 68.77749375659457,68.44329603135094 C65.93259143069866,70.43594318556333 62.57277161538019,70.42991447252305 60.57142857142857,68.42857142857143 z" fill="black" />
  <path d="M87.87547124798064,67.49138946009256 C83.06357462612115,64.88098124052603 83.51083038164113,57.89687890798444 88.6141489535058,55.95660064523024 C94.64831500054986,53.66241480320253 97.84150857360044,58.577900070806805 94.40609764520711,64.87251438909354 C92.13410030408734,69.03543617417688 91.32200158356561,69.36109943601464 87.87547124798064,67.49138946009256 z" fill="black" />
</svg>