<?xml version="1.0" encoding="UTF-8" standalone="no"?>
<!DOCTYPE svg PUBLIC "-//W3C//DTD SVG 1.1//EN" "http://www.w3.org/Graphics/SVG/1.1/DTD/svg11.dtd">
<svg width="158" height="160" version="1.1" xmlns="http://www.w3.org/2000/svg">
  <path d="M67.69067364342445,148.01538508577002 C57.46165704017041,146.17228429255746 51.8884527273525,143.750747355244 46.46268534947456,138.79190163291474 C40.467273570597634,133.3124330190366 37.68438347287267,127.47639152788776 38.179441310480435,121.42098356022464 C38.45897949161301,118.00175129945316 38.81683256890458,117.5 40.975918438821225,117.5 C43.57117369718409,117.5 43.931123150568546,118.1564997976848 46.02428384140627,126.70754521023315 C48.38649041643903,136.35770526977507 58.45943035290918,141.83255786423697 75.5,142.72821068647846 C87.69532002175512,143.36919705147878 94.88900910622938,142.01205589229372 102.11650344167887,137.7068159736802 C110.83626656468361,132.512668384538 111.76556221034298,129.7131350413871 113.08744962793509,104.65648393156002 C113.69111670716214,93.21384881045962 113.93583139977392,83.6024980664402 113.63126005596126,83.29792672262798 C113.32668871214862,82.99335537881576 108.82071114865074,85.50172449830129 103.61797658152152,88.8720803214847 C98.41524201439229,92.24243614466812 93.77319554621411,95.00000000000001 93.30231776334779,95.0 C92.83143998048146,95.0 89.98328666346471,93.14165793945696 86.97308816997723,90.87035097657102 C80.2049338183394,85.76352624789611 74.79417597424664,83.38022983439765 66.49794444838675,81.85158909447941 C62.970052525494694,81.20154945870605 59.549832548009256,80.33981520279063 58.897455609530226,79.936624081334 C57.77007598512458,79.23986515522726 58.313647797865634,75.4284578377837 60.654139571533975,67.61913823994354 C61.14960862065701,65.9659488551437 56.19037111936081,71.06225512079465 49.20281855238429,79.3869632421983 C47.54803390402698,81.35841162406211 46.15628537412612,82.0365261225344 44.225989735171204,81.81186954161959 C39.961903718120034,81.31559582790177 38.86904338224098,77.94871588302026 39.22632695912556,66.40892757438387 C39.51420231663804,57.11093320830019 39.82857541638257,55.73144706376165 43.22638934902158,48.85643771874602 C49.516113254956,36.13004613635523 60.15191597704713,27.278199153780605 74.90687949212011,22.48975356643451 C86.01318547365948,18.88541108095905 102.1985744238225,22.48382987432019 110.30136055171761,30.358836368107788 C115.51685082161198,35.427712566420304 118.20786604198186,43.22070538659055 115.63214737382481,45.796424054746566 C113.41247816493441,48.01609326363609 111.2326167916991,46.57758929408149 110.02611008716593,42.09696546102832 C107.69149773389115,33.426877087942415 99.69665959238709,28.16934629559417 87.56747666225579,27.32781633059794 C82.08864109169103,26.947691442344848 79.20778994933546,27.29309582158559 74.75127272385816,28.86443615120602 C67.71971201009595,31.343720841623846 59.17357724672084,36.89933934198931 54.8947756739022,41.77262510651581 C48.91927892483898,48.578339918853175 45.02210328020402,60.28328339880658 45.005792026488216,71.47362019163889 L45.00000000000001,75.44724038327777 L52.75,67.37548407684281 C57.0125,62.93601810830359 61.764489742722894,58.49095019336039 63.30997720605088,57.49755537696903 C65.90653756061837,55.82856118718747 66.2436661588604,55.815094730288855 67.74881917182567,57.32024774325426 C69.25397218479088,58.8254007562196 69.24844347360064,59.50168008061162 67.67602476821874,66.22455625148916 C66.74011222838678,70.22605031317012 65.98013334378811,74.00037639496539 65.98718280244395,74.61194754436751 C65.99423226109978,75.22351869376963 68.45050948619173,76.21602776840143 71.44557663598162,76.81752326577151 C77.64702823621525,78.0629528431887 85.25698183016291,81.66246704159369 89.83803984250682,85.51717322266246 L92.96119062076563,88.14513134432886 L101.73215782110088,82.71963288725972 C113.80145358741753,75.25387180727768 118.92373835761582,72.7567580536307 120.73952601917054,73.45354115722219 C122.0274862532002,73.94777787232421 122.18040497854105,75.334724069099 121.65682974090583,81.77332609730901 C121.31125436462794,86.02299674378905 120.55350572929517,97.6 119.97294388461077,107.5 C119.39238203992636,117.4 118.45141609316344,127.251398825987 117.88190844735983,129.3919973910822 C116.36385728572607,135.09787010811849 107.95978307142936,143.10734854513382 100.46900762770672,145.98731176891573 C95.8296479123968,147.77099697779286 92.04965516068808,148.34900293898446 83.5,148.58207535937134 C77.45,148.74700460117566 70.335803139541,148.49199397805506 67.69067364342445,148.01538508577002 z" fill="black" />
  <path d="M77.24507974887393,111.84507974887393 C75.34292927183253,109.94292927183253 75.73407257429648,104.55063613691036 77.91753471705013,102.57463005537568 C80.54374561538613,100.19794185689838 84.12248781429473,100.94283959116277 85.9665820477301,104.25 C87.34371989960034,106.71973050435278 87.34394631392387,107.28026949564722 85.96880362160584,109.75 C84.26564970848655,112.80883250977256 79.38174547681405,113.98174547681405 77.24507974887393,111.84507974887393 z" fill="black" />
  <path d="M57.70460076110655,108.75 C56.781888581099786,108.0625 55.745596154393496,106.06732954545454 55.40172870175924,104.31628787878788 C54.896067148349644,101.7413583747927 55.267235226666216,100.64185568242469 57.34280303030303,98.56628787878788 C60.49368567262583,95.41540523646508 62.4120691601741,95.32252365591248 64.44329603135094,98.22250624340543 C66.77124221980861,101.54611499777188 66.44359298690073,106.57588744028645 63.77749375659457,108.44329603135094 C61.08843450244557,110.3267864491111 59.90131406570896,110.38674050222582 57.70460076110655,108.75 z" fill="black" />
</svg>