<?xml version="1.0" encoding="UTF-8" standalone="no"?>
<!DOCTYPE svg PUBLIC "-//W3C//DTD SVG 1.1//EN" "http://www.w3.org/Graphics/SVG/1.1/DTD/svg11.dtd">
<svg width="158" height="160" version="1.1" xmlns="http://www.w3.org/2000/svg">
  <path d="M58.872216191988926,147.5388828586556 C58.57220092579539,147.23886759246207 58.53962808168957,122.97090160499947 58.799832093976,93.61006955318317 L59.27293029813314,40.22673854988078 L51.971092685226054,38.99512414997075 C47.44872457735932,38.23232799116587 42.543447466528605,38.054898161526886 39.08462753615948,38.52900505733088 C30.76826180127419,39.66894481201951 27.734013266258884,39.62699154887911 27.300535254399737,38.36607142857166 C25.998383980752827,34.57831588917677 37.320093846873,31.378970512069117 48.22400092508856,32.45341389201803 C56.698097082508234,33.288429859421164 62.7223653589467,35.050244060876686 74.76257950406908,40.214695840526005 L84.14412718330661,44.23875637831395 L88.07270113919661,42.46721635398826 C92.79639377248395,40.337127762952655 96.23134065576991,40.33714437072216 101.29401844278473,42.4672802782927 C103.38072858631634,43.345269435894075 105.63072858631634,43.72841190164228 106.29401844278473,43.31870797995538 C106.95730829925313,42.90900405826847 111.7155786862754,39.049881508422644 116.86795263616756,34.742880091409084 C122.02032658605972,30.435878674395525 126.70881177557844,27.069603925192812 127.28680861287583,27.262269537625272 C127.86480545017321,27.454935150057732 128.87592852885237,29.167172064686394 129.53374878771842,31.067240459022294 C130.19156904658445,32.9673088533582 132.81558385706575,38.95556743386504 135.36489281101015,44.37448174903752 C137.91420176495456,49.79339606421 140.0,54.82064180240552 140.0,55.54613894502758 C140.0,57.38708201633861 136.1934028505489,58.40539954058513 134.51591450289806,57.01320786430377 C133.75245403278126,56.37959195087286 131.45017039672237,52.28620038691427 129.39972864498947,47.91678216661802 C127.34928689325658,43.547363946321774 125.09954113666004,39.497574949605635 124.40029363033048,38.917251062804375 C123.44710210412084,38.126172358413115 121.22100276791092,39.6311747518317 115.50507027756487,44.931058361582856 C107.37460654808024,52.46972533015705 105.02453116647233,53.31112510909051 101.4578470674017,49.960399375986256 C97.29224791241892,46.04702216210988 90.21168376346957,46.54251300720259 83.79494302944013,51.19643185368925 C82.38297480285905,52.22050089632292 81.69539955103023,52.07265036667576 79.79494302944013,50.33630473739817 C77.69254326118886,48.41545434849112 68.77102013128417,43.99999999999999 66.9922992217559,44.00000000000001 C66.57789383309137,44.000000000000014 65.9544120560742,64.1375 65.6067841617178,88.75 C65.25915626736138,113.36250000000001 64.64291841964724,136.65 64.23736672235306,140.5 C63.6059960765084,146.49375370074875 63.20658565837998,147.54200109146373 61.4588492470795,147.79218258041283 C60.33621633297322,147.95288299963988 59.172231458182466,147.83889812484912 58.872216191988926,147.5388828586556 z" fill="black" />
  <path d="M104.34994961527744,79.25904991704111 C101.72371938254055,77.52569991188402 102.78103410457022,70.72273826636078 105.93936529350543,69.03245071011656 C108.44796657434402,67.68988804808959 110.40488630406705,68.51950279575098 112.0704639030262,71.63166300716088 C113.22094825587583,73.7813626843334 113.19997068776215,74.55483711792498 111.92951595368994,76.82862552864958 C110.42772246567085,79.51645102670103 106.59970720679443,80.74392252426652 104.34994961527744,79.25904991704111 z" fill="black" />
  <path d="M83.2,76.8 C82.54,76.14 82.0,74.35583269131959 82.0,72.835183758488 C82.0,69.19689222038033 84.80568896067956,67.6333181359913 88.37314891750832,69.28351048927627 C91.53090803790755,70.74418839934617 92.50181149757216,73.1938395480926 91.02021532755143,75.96222731495337 C89.79393425849136,78.25355445186908 85.15095289900104,78.75095289900104 83.2,76.8 z" fill="black" />
</svg>