<?xml version="1.0" encoding="UTF-8" standalone="no"?>
<!DOCTYPE svg PUBLIC "-//W3C//DTD SVG 1.1//EN" "http://www.w3.org/Graphics/SVG/1.1/DTD/svg11.dtd">
<svg width="157" height="160" version="1.1" xmlns="http://www.w3.org/2000/svg">
  <path d="M70.63485869180128,154.9274198509671 C67.80005335616028,152.69756164896788 67.08029772588681,148.31970227411315 69.2,146.2 C69.86,145.54 71.885,145.0 73.7,145.0 C76.975,145.0 77.0,145.03636363636363 77.0,149.8 C77.0,154.11139970621088 75.77028221064333,157.0 73.93485869180128,157.0 C73.56903097229198,157.0 72.08403097229198,156.0673389329352 70.63485869180128,154.9274198509671 z" fill="black" />
  <path d="M94.2,155.8 C92.15033931830791,153.7503393183079 92.74374872015522,148.29289332029282 95.20362137569366,146.56993144488297 C97.0776390628231,145.25731836245447 97.71332706796281,145.22841769104073 99.45362137569366,146.3767111032762 C101.82661444810645,147.94247633058703 102.71778121613555,153.43020025692329 100.94578582237091,155.5653240877673 C99.49695959642811,157.31105289307197 95.83833116534355,157.43833116534353 94.2,155.8 z" fill="black" />
  <path d="M42.34582646913326,141.7889033270299 C35.58074527985704,134.66197628861084 34.17168683819399,129.1617575758727 33.049253325009936,105.5 C32.27356114148479,89.1478150514188 32.68683514597795,71.89749052195941 34.60203134740587,40.686039970280525 C35.21469044022025,30.701695303057623 35.45180331181994,29.750073060022068 37.69277584410217,28.281731462045798 C39.77443172449592,26.917778143643808 40.311288159969635,26.891294294708732 41.46400847517788,28.095691491765272 C42.52216270003417,29.201283165353694 42.621001568162704,31.30807356759901 41.92866345058805,38.0 C41.44499395237149,42.675 40.75277224928383,61.35 40.39039299928214,79.5 C39.68700671939028,114.72955848045333 40.300985845785114,123.39543142010946 44.106099061536554,131.94451355484716 L46.13370172149854,136.5 L49.49640408572647,129.26753896818397 C53.10118962164151,121.51440827368509 57.24854541866079,116.77440941352228 59.628445808164344,117.68766288183662 C60.43684297739712,117.99787398219755 62.43262843521729,120.89505437484105 64.06352460332027,124.12584153215552 C65.69442077142327,127.35662868946999 67.58481253171834,129.99512906909808 68.26439518175377,129.98917570910683 C68.9439778317892,129.98322234911558 71.7090188978088,129.3082223491156 74.40893088401955,128.48917570910683 C80.5628396418699,126.62232289435573 94.2263513131981,126.5618725444559 100.250408977946,128.37484738486023 L104.81867972393096,129.74969476972046 L109.20640992372083,123.12484738486023 C112.96849634087965,117.44463296248611 114.0151966088197,116.5 116.54707006175533,116.5 C119.07354889766671,116.5 120.11057195192927,117.42911422103064 123.72786149792927,122.93358449378792 C126.05318532179038,126.47205596537127 128.16241578061158,129.84705596537128 128.41504029530972,130.43358449378792 C129.32376775263097,132.54341369587974 131.91465451688643,127.67041698118801 133.43262880102628,120.9963938603106 C136.10818469315717,109.2328731789314 137.1331868955827,91.40194704419042 136.85275035177267,61.5 C136.70316267217578,45.55 136.93874937413003,31.46126697345269 137.37627635611545,30.19170438545042 C138.71372975453176,26.31084476367179 142.24399537382223,27.690810964220603 143.28141855739727,32.5 C143.75599566112203,34.7 143.9357468050101,52.925 143.68086554381514,73.0 C143.1925145784389,111.46357940935363 142.58334881132134,117.3549751133157 137.84981951749933,129.39351612220736 C135.21877834425385,136.08490749091337 133.36826889793537,138.0 129.53357388452008,138.0 C125.85901855722472,138.0 123.4500753886885,136.0041429687036 119.41361253655532,129.61541198788166 C117.81112564144989,127.07906815216157 116.17297404628113,125.11550524936634 115.77327565840253,125.25193887055892 C115.37357727052391,125.38837249175151 113.57256539708632,127.96903209965424 111.77102705076345,130.98673799923165 C109.96948870444058,134.00444389880906 107.69845275348028,136.62697380924314 106.7242804930739,136.81458224464075 C105.75010823266754,137.00219068003835 103.02154414966388,136.2206585803841 100.66080475306579,135.0778442454091 C93.53658487594504,131.62906857249075 76.20906950833968,132.60663932683755 68.16609973500493,136.9111061195362 C64.78104030444787,138.72273494828696 62.63298923223462,137.48220441163375 60.08664014702495,132.24510144758133 L57.77950873998338,127.5 L53.63975436999169,136.0 C48.809237108665194,145.9183171395161 47.098117733340445,146.79538176501364 42.34582646913326,141.7889033270299 z" fill="black" />
</svg>