<?xml version="1.0" encoding="UTF-8" standalone="no"?>
<!DOCTYPE svg PUBLIC "-//W3C//DTD SVG 1.1//EN" "http://www.w3.org/Graphics/SVG/1.1/DTD/svg11.dtd">
<svg width="158" height="160" version="1.1" xmlns="http://www.w3.org/2000/svg">
  <path d="M70.1278651783264,148.1560648771664 C66.6475539343204,143.22477834688368 62.03394795839224,133.14332551555339 54.8536133377308,114.77942840923613 C50.92259441832213,104.72574278415627 47.09738731393824,95.61237219046757 46.35315310576661,94.52749375659458 C44.12899053951099,91.28530739232329 44.72752982577268,90.26386177014338 50.75,87.02399295957846 C53.912499999999994,85.32268356044538 58.075,82.57574959850065 60.0,80.91969526636791 L63.5,77.90868738976296 L56.0,78.09280102538 C51.875,78.19406352496937 47.921331259594126,78.2146088622727 47.21406946576472,78.13845733049851 C46.21877783248352,78.03129335939522 46.076728311587146,76.02237343647768 46.58557198764153,69.25 C47.267833989741256,60.16954311869147 46.76806674890886,58.03941014620119 42.23227095781402,50.69514224788641 L40.5,47.89028449577282 L44.98958845254735,44.03540237117475 L49.47917690509471,40.18052024657668 L45.9182695916345,39.51249000778167 C43.959770569231374,39.14507337644442 39.94329672386961,39.28323017614286 36.992772157497235,39.81950511822265 C30.33234349511268,41.03007663348997 28.804037538421085,40.50137370466995 29.195904694711277,37.122252879462785 C29.49303695860398,34.56004320038152 29.717526848036606,34.482568808695056 39.0,33.73873159156377 C44.225,33.320033966923845 50.975,33.09503396692384 54.0,33.23873159156377 C61.73099360104116,33.60597966315917 61.891278908098606,35.91437350291435 54.678140176092725,43.00515768339467 L49.259338626504615,48.33204154526884 L51.35919652688698,52.91602077263442 C52.915996476692776,56.31450722725312 53.43783061838039,59.37496979722448 53.37698771095596,64.75 L53.29492099464257,72.00000000000001 L62.525015781879105,72.0 C77.10685574891687,71.99999999999997 77.6169706007703,74.95269678503145 64.7990005472731,85.16250150646209 C61.113450848273295,88.09812567790794 57.09561720790485,91.21054801769787 55.870481346454326,92.07899559488416 L53.64296159836246,93.65799118976832 L62.344428039960526,115.57899559488416 C67.13023458283946,127.63554801769787 71.43525669371417,138.12015188272187 71.9111438419043,138.87811529493746 C73.08969719665645,140.75524168013908 74.4003292729124,139.7448730925324 77.27830513876772,134.740561150482 C78.61961400091546,132.4082525177169 84.33023173916575,122.625 89.96856677932391,113.0 C95.60690181948208,103.375 107.20410031064499,81.55000000000001 115.74011898190815,64.5 C124.27613765317132,47.449999999999996 131.66816395586432,32.98395555534594 132.1668440990037,32.35323456743542 C133.53419179645843,30.623839678907053 137.0,31.94297902813228 137.0,34.192807260300924 C137.0,39.02340488483034 96.90513808937636,115.43368989527062 79.29927696939365,144.1552433925204 C75.18109949431125,150.87348647393947 72.78378369355929,151.9192614080092 70.1278651783264,148.1560648771664 z" fill="black" />
  <path d="M23.75,84.91990120052802 C22.751008725972724,84.33804219937322 22.0,82.71398410569554 22.0,81.1355221838198 C22.0,78.9626608762843 22.74585528045995,78.01475100110122 25.48233078956195,76.70981678150068 C29.312611852819437,74.88328304732049 31.54443506206161,75.28025203520626 33.027780088571646,78.05190757030843 C36.041728725022416,83.68352211138829 29.69441197225834,88.38220332723947 23.75,84.91990120052802 z" fill="black" />
  <path d="M23.23596923245418,63.45717077143847 C20.61742039714873,62.356153620266625 20.0,61.52856806564582 20.0,59.1197024850914 C20.0,55.811153655935996 22.520782756261372,52.62126137132373 24.330619793348287,53.63957507939658 C32.41149166807227,58.18631737419286 31.439215131002626,66.90637680029162 23.23596923245418,63.45717077143847 z" fill="black" />
</svg>