<?xml version="1.0" encoding="UTF-8" standalone="no"?>
<!DOCTYPE svg PUBLIC "-//W3C//DTD SVG 1.1//EN" "http://www.w3.org/Graphics/SVG/1.1/DTD/svg11.dtd">
<svg width="157" height="160" version="1.1" xmlns="http://www.w3.org/2000/svg">
  <path d="M105.24937603945985,147.75 C104.70184367417637,147.0625 102.20207256192195,141.775 99.69432912333889,136.0 C97.18658568475584,130.225 92.89094621183341,120.775 90.14846362795569,115.0 C85.56554041500256,105.34948053621457 85.08538191103267,104.70225727052728 84.21346679547935,107.0 C82.12583551267883,112.50149838706547 78.91663197959336,122.08820326508838 75.41289272398635,133.28954677096112 C71.71842781542863,145.10063415279834 69.82570034242683,148.0 65.80980003605171,148.0 C63.934442709632464,148.0 62.94049797278582,145.15534831945826 54.978144598934065,117.0 C52.72280868776075,109.025 49.71878004768749,100.7295044358337 48.30252539877128,98.56556541296379 L45.727516946196346,94.63113082592758 L48.18501066603319,92.56556541296379 C49.536632211943456,91.4295044358337 53.42294089904927,88.36296938023081 56.82125219293501,85.75104306717958 C60.21956348682075,83.13911675412837 62.99999999999999,80.565702548897 63.0,80.0323448333321 C63.00000000000001,79.43690409437912 59.96765323562951,79.2964412630655 55.14376841928501,79.66843245225198 C50.822841049891764,80.00163835822279 47.048272266777296,79.87505256345416 46.755837790141754,79.38713068609945 C46.46340331350621,78.89920880874476 46.52056965640477,75.3253731136336 46.88287410769411,71.44527358585245 C47.944497580803855,60.07581698095699 46.64834106352529,56.10972825433148 40.12265529212525,50.75978747631725 C37.10123846432817,48.28274496145186 37.45846390548063,46.54281111705933 42.0,41.61582621677075 C44.2,39.22910803264895 46.0,36.73980857735937 46.0,36.08404964946055 C46.00000000000001,35.233052868626814 43.647746119027815,34.97881480428043 37.78250629319831,35.195880344822264 C30.32910420187969,35.471721879332556 29.528633067360946,35.32017888523584 29.173765695743185,33.566097246741336 C28.45121982006772,29.994609544971393 31.62029914054095,28.99999999999997 43.7225144314428,28.999999999999986 C52.8877524736506,28.999999999999996 55.17333278372679,29.28812305736896 55.6392316292168,30.50223598693386 C56.59292554558137,32.987522494754685 55.262021857810296,36.21321842091069 50.952335830378914,41.86181130672932 L46.86145448392018,47.223622613458645 L48.882999415696375,49.375458585137295 C53.26395555345773,54.03877269673522 55.52214753598646,64.62877728540217 53.49651558641458,71.01097841506981 C52.80797721720744,73.18037071691523 52.88771029095203,73.19518354594251 63.443895687124666,72.85900500906668 C72.04701374650799,72.58502501219942 74.2658164531302,72.80550735597534 75.0273760857406,74.01005503246294 C75.5454751866145,74.82952476460832 75.97626519949854,75.78189418818968 75.98468722548293,76.12643152931042 C76.00007301553747,76.7558500571402 65.86557136955122,86.69931450437984 58.610222045840516,93.17338488118044 L54.72044409168104,96.6442992509487 L57.278996306465984,103.07214962547435 C58.6862000245977,106.60746733146345 61.50793492322864,115.125 63.549518303423625,122.0 C65.5911016836186,128.875 67.54144351780967,134.8162902514725 67.88361126829267,135.2028672254945 C68.22577901877565,135.58944419951646 70.81683488504883,128.61444419951647 73.64151319334417,119.70286722549449 C76.46619150163951,110.79129025147252 82.19091649478004,93.6 86.36312428921201,81.5 C90.535332083644,69.4 95.99357676801712,52.786305893576966 98.4925569211523,44.58067976350436 C100.99153707428749,36.37505363343175 103.53312195162341,29.062553633431754 104.14052331523214,28.330679763504357 C105.60707606749352,26.563591800656713 108.64573508430568,26.63441713726851 109.34318553622316,28.451943880682514 C109.9478036863133,30.027553523376305 102.08504224414402,55.905367052651485 94.03380803757767,78.8379589051861 C91.26521361690995,86.72383630303845 89.0,94.2695121578086 89.0,95.606127471342 C89.0,96.9427427848754 91.31831096108591,102.64066127754165 94.15180213574646,108.26816856615591 C96.98529331040702,113.89567585477016 100.92279331040702,122.34979115550789 102.90180213574646,127.05509145668418 C104.88081096108591,131.76039175786048 106.95,135.6197239977002 107.5,135.63138532299462 C108.05,135.64304664828907 111.03442540522349,126.8432554927812 114.1320564560522,116.07629386631045 C121.35357419673095,90.9752398276235 141.44388193654007,31.127546634887736 143.257299023187,29.314129548241567 C145.1193847620495,27.452043809379866 148.00109973524292,28.694495058908977 147.99546328372233,31.35698880418407 C147.9900919576332,33.89424510167441 143.0364846006662,49.29897194791982 132.5234310940004,79.47191040849054 C128.31285251417495,91.55646113316035 122.88814886701438,108.43146113316034 120.46853410031025,116.97191040849054 C114.77862368342106,137.05543443277475 111.29389113785516,147.19509652385602 109.74318261299541,148.17988360799131 C107.94033155456887,149.32479537477133 106.38507131864117,149.17601707943405 105.24937603945985,147.75 z" fill="black" />
  <path d="M20.782662263647175,84.42234074421634 C19.37049072944541,81.32296183951112 20.460454216719686,79.10091870988921 24.32313517329947,77.20459116236664 C28.149176995054003,75.32625107005136 31.0,77.08989144659338 31.0,81.335183758488 C31.0,85.47877248211906 29.463567084985353,87.0 25.278561208850192,87.0 C22.679428769469528,87.0 21.701715022738654,86.43944182921265 20.782662263647175,84.42234074421634 z" fill="black" />
  <path d="M19.74796657378078,62.753232667925396 C16.195209348855062,61.5639320018113 15.088692127470425,57.66446520756814 17.53646620544849,54.959705296542 C19.985080632740065,52.254016809976584 23.467950859211314,52.508150538600354 25.87493605679844,55.568136359587214 C27.513370131218412,57.6510677549995 27.692985007957905,58.57971846611544 26.825617788717324,60.48338214778471 C25.536861825774096,63.3118933789767 23.43269900602786,63.98671259877411 19.74796657378078,62.753232667925396 z" fill="black" />
</svg>