<?xml version="1.0" encoding="UTF-8" standalone="no"?>
<!DOCTYPE svg PUBLIC "-//W3C//DTD SVG 1.1//EN" "http://www.w3.org/Graphics/SVG/1.1/DTD/svg11.dtd">
<svg width="158" height="160" version="1.1" xmlns="http://www.w3.org/2000/svg">
  <path d="M22.000871057754054,154.50104956038558 C20.981351250611098,153.27260334438063 22.239946098728904,148.53546482259247 28.97514774633632,128.25104956038558 C33.49521003027823,114.63797230217351 39.91232596751591,96.1937670254568 43.23540538464227,87.26392672323729 L49.277367961235655,71.0278534464746 L42.63868398061783,50.21328582434706 C38.98740779127802,38.765273632176914 35.99999999999999,28.199839298039734 36.0,26.734542859597767 C36.0,25.019379111718607 36.77760982285684,23.654203369342294 38.18299642250164,22.902063286815718 C40.02884767051472,21.914193678294307 40.630557104568986,22.06048208706899 42.079031843796216,23.849272670705147 C43.021203293132324,25.012805158432492 44.34354856771102,28.33520937068502 45.01757689841553,31.232393142377433 C46.27820608491554,36.6509701589135 58.027139531276674,75.35478408487359 59.89100244529784,80.22903589606045 L60.93455722964966,82.95807179212089 L65.91493552151468,79.86209849608585 C74.56180229910179,74.48691069528984 81.96783228367097,75.17255024501105 90.93720491537454,82.1786240240617 C93.26798659781075,83.99922275493485 93.42066285819264,84.00413744089505 94.43365321890744,82.29117554546372 C95.01623708239453,81.30602899545868 100.21949487047598,66.325 105.9964483035329,49.0 C116.212575573905,18.361981707105592 116.57525237125525,17.491341261152055 119.25,17.183577654302994 C121.57678811445783,16.915851198624207 121.99999999999999,17.238030118916598 122.0,19.277072806663995 C122.00000000000001,20.6025274305959 118.65632507256392,31.96174683122188 114.56961127236423,44.51978258583284 L107.13922254472844,67.35257486694368 L108.94616176079873,70.92628743347184 C109.9399783296374,72.89182934506233 113.97254884245345,83.725 117.90742956705662,95.0 C121.84231029165979,106.275 127.52286257186425,122.35361243244094 130.5308790786221,130.73024984986876 C133.53889558537992,139.1068872672966 135.99999999999997,146.628554575977 136.0,147.4450660913808 C136.0,148.26157760678456 135.02312426441517,149.45244051077003 133.8291650320337,150.0914281002374 C130.72994877180736,151.7500783067524 129.9304279691855,150.30354147560024 123.88912447909956,132.10736225002574 C117.242463954151,112.08787037017079 105.11922552718035,78.72865677793253 104.1285346525684,77.73263880440402 C103.70874327849982,77.31059014682623 102.2705901468257,79.74700589209226 100.93263880440367,83.14689601610633 C97.15542428906264,92.7452378390183 96.59402644148525,92.8243206320294 85.0,85.39128933205234 C78.39096520898465,81.15417958314951 73.91602745488811,81.22647677658061 68.37614869564294,85.65986464178053 C59.66187389077094,92.63362017920333 58.06009549361596,92.55921928883922 54.43088831246791,85.01212223826792 L52.361776624935814,80.70931285461181 L48.279473826319546,92.10465642730591 C46.0342072870806,98.37209539228766 40.235916661314995,115.3125 35.39438354684042,129.75 C26.350057982454643,156.7202689723296 25.360436258274227,158.54907798424358 22.000871057754054,154.50104956038558 z" fill="black" />
  <path d="M62.0,120.30601893224173 C59.64861212301379,119.4656543325522 58.0,116.85967891367603 58.0,113.9831843916046 C58.0,111.3034394360574 61.61121061028263,107.0 63.85990576682214,107.0 C65.85099322689418,107.0 70.0,111.73006542062616 70.0,114.0 C70.0,115.15 68.89545454545454,117.19545454545455 67.54545454545455,118.54545454545455 C65.01780788205991,121.07310120884918 64.55630434313842,121.21961880958715 62.0,120.30601893224173 z" fill="black" />
  <path d="M84.0,117.0 C81.55538838182032,114.55538838182032 81.46599860987148,112.22532813012108 83.69203550178607,108.97250624340543 C87.29129146613684,103.7130522697283 90.27127374262466,103.64070938493954 92.85761776592008,108.75 C94.99553583022211,112.97343068181185 94.38839859092319,116.1865841068543 91.1221482448855,117.93462824320946 C88.19525198317476,119.5010555852563 86.24514630292518,119.24514630292518 84.0,117.0 z" fill="black" />
</svg>