<?xml version="1.0" encoding="UTF-8" standalone="no"?>
<!DOCTYPE svg PUBLIC "-//W3C//DTD SVG 1.1//EN" "http://www.w3.org/Graphics/SVG/1.1/DTD/svg11.dtd">
<svg width="158" height="160" version="1.1" xmlns="http://www.w3.org/2000/svg">
  <path d="M52.0,148.56509966117451 C52.0,148.3259044748205 52.43886211882133,146.9759044748205 52.9752491529363,145.56509966117451 C53.782359986994095,143.44223729237513 54.6012861170689,142.99700641574276 57.7252491529363,142.98263637622534 C64.24172916809957,142.9526609654227 74.8105130828095,140.2182782512223 80.8482621508523,137.0001915129397 C91.41876800370875,131.3661705692633 104.8912009077647,115.542858290318 111.13422815554199,101.4294596952698 L113.18462574374605,96.79419585736935 L110.95610699530101,89.64709792868467 C107.90803678921087,79.8716108381529 104.85486167812122,74.83149320183735 100.05835346863216,71.65731426168058 C96.75176068898116,69.46911469932422 95.98590748831151,68.37222823425549 95.92392207449663,65.73581150760549 C95.88207921546977,63.956115178422465 95.28470440168752,60.94066394402124 94.59642248831385,59.034808764491636 L93.34500082763444,55.56961752898327 L89.00565379646923,62.873820239615505 C84.84743966591891,69.87313112800953 84.5376098643119,70.1530766420018 81.58315338265201,69.58039166262375 C79.88741902219341,69.25169445443055 75.54459039477993,68.7070474851364 71.93242309951094,68.37006506419229 C65.81087456021967,67.7989801508775 65.17275601480681,67.93539292788999 62.53640037267598,70.37868487669242 C58.29732048694934,74.30733152421185 56.81391843645797,73.82153505458786 51.70397687882907,66.83119544923773 C50.144128976705225,64.69734197056933 47.553133538152885,62.677595172214026 45.511039508520696,62.00364336636571 L42.0,60.84489583425598 L41.77053618716399,54.17244791712799 C41.35990938665705,42.23206435121222 42.068006683696446,28.551209505353967 43.21575361835596,26.249999999999993 C44.65339652196383,23.36755491111936 47.546967831348304,23.367554911119363 49.401583312007425,26.25 C50.61830797293393,28.14103458910045 50.681853139424746,30.54885244310483 49.79988526607609,41.342234535727634 L48.75049794842873,54.18446907145527 L53.92216806074724,59.42118908112383 L59.09383817306574,64.65790909079239 L64.65496026986196,62.7804860035434 C69.43836591021008,61.16561835119672 70.98123227108954,61.06190742580539 75.68734635447201,62.03889295367147 C78.69654154776961,62.66359947422885 81.25414055866753,63.02291031806261 81.37089971202293,62.83736149552426 C88.12853245989527,52.09841072823291 92.54113482221715,46.999999999999964 95.07791204845682,46.999999999999986 C97.35446639219097,47.0 99.19645682957307,50.40772798729295 101.5643115882699,59.0 C102.98968944421581,64.17229116954655 104.22878435920364,66.3223294697017 107.6304887219041,69.52583867069374 C111.36190245177046,73.03984722105629 113.7793527106714,77.23371022656255 117.68036539641898,86.96065696321574 C118.56296815841188,89.1613752758974 118.89697496119517,88.56981968060785 120.84217362825143,81.36081487860216 C123.91350381249629,69.97830962515502 124.93362825220106,60.69753443975017 124.96912433380533,43.815099661174486 C125.00373239778091,27.35501853462338 125.80292967028282,23.690842152427464 129.25161206091127,24.18066029730909 L131.5,24.5 L131.20169524075754,46.0 C130.73179693555977,79.86742332709682 127.70211129437693,90.47645761949265 111.5398813145196,114.84967052645298 C107.76522239915423,120.54198931600212 101.87913032259465,127.96698931600213 98.45967669994278,131.349670526453 C87.70310267769871,141.9905695849553 71.63916090944996,148.94951510608016 57.75,148.985218913304 C54.5875,148.9933485109868 52.0,148.80429484752852 52.0,148.56509966117451 z" fill="black" />
  <path d="M51.054214177629106,95.5653240877673 C50.399342788338714,94.77625233603929 50.00674266638974,92.63875233603929 50.18176946218693,90.8153240877673 C50.47268274856785,87.78459098333862 50.81673191427142,87.47366625539911 54.18974776512609,87.1932267608332 C57.226412901517314,86.94075215837924 58.17601569650096,87.33900049625804 59.55475769861005,89.4432267608332 C61.10924425719567,91.8156731209943 61.111926083833275,92.18023389421285 59.59195695362973,94.5 C57.73150325087302,97.33941124545292 53.01500113861343,97.92792784076656 51.054214177629106,95.5653240877673 z" fill="black" />
  <path d="M75.19767987302879,95.25 C71.80963008418847,92.3204470902873 71.57469893327591,89.47970216590775 74.52833256687691,87.15637361111062 C77.24406909301369,85.02017494831755 79.21435572147345,85.19796345973609 82.30664290477173,87.85824825023704 C84.40775550179893,89.66582870886688 83.8620021061983,93.75792105346636 81.25413725436667,95.75 C79.03859319890185,97.44239547245301 77.59541051354627,97.32325134293248 75.19767987302879,95.25 z" fill="black" />
</svg>