<?xml version="1.0" encoding="UTF-8" standalone="no"?>
<!DOCTYPE svg PUBLIC "-//W3C//DTD SVG 1.1//EN" "http://www.w3.org/Graphics/SVG/1.1/DTD/svg11.dtd">
<svg width="157" height="160" version="1.1" xmlns="http://www.w3.org/2000/svg">
  <path d="M55.37327405459165,132.29134795628528 C40.38920194985913,113.72902877009496 37.792599012908234,110.14459884078968 38.50034498835241,108.99944179712008 C39.110665475233745,108.01192250531574 40.71259429694071,107.6997786175505 54.17239494845384,105.94566404026304 L62.84478989690768,104.8154560384553 L64.03421263206107,99.85738574722559 C64.68839513639544,97.13044708704926 66.74831740959121,92.68281766483393 68.61181768360723,89.97376480896934 C70.47531795762326,87.26471195310474 72.0,84.69842710277926 72.0,84.27090958602386 C72.0,83.84339206926846 70.425,81.27833377434561 68.5,78.57078004175087 C65.22099893331131,73.95879480679237 64.03393130055306,69.68755680917616 65.75,68.67588933013067 C66.1625,68.43270976789009 72.575,69.28333913273728 80.0,70.56617680756887 C87.425,71.84901448240046 97.58330350435318,73.20226215809261 102.57400778745152,73.57339386466253 L111.64801557490304,74.24817878569876 L115.9645511938835,65.87408939284938 C118.33864578432274,61.26834022678222 122.51601448954571,53.320183885014764 125.24759276104567,48.21151974447725 L130.2140987092274,38.9230394889545 L119.8570493546137,39.477079874132215 C114.16067220957616,39.78180208597996 96.0,40.707347998429384 79.5,41.53384856846428 C63.0,42.360349138499174 48.3179551552772,43.231006049099 46.87323367839377,43.46864170313057 C43.34835955764585,44.04843218902398 40.56633190453493,41.94172767904414 41.39771346609329,39.32227633079499 C42.002414642718904,37.417031632523454 43.15106741174781,37.25638980613544 60.77026448660974,36.61297891590979 C85.26607958996276,35.71845040047943 115.12393943535841,34.12410172620702 126.87501705863389,33.083120273259446 C137.15716488030242,32.17226549704542 139.57699400838953,32.455280764923806 140.4260979595575,34.66801019242835 C140.7438591801669,35.49608265963929 137.56167128162673,41.89936018077708 133.1448747137901,49.31946844145159 C128.82975578591316,56.568760798653216 123.03725824723625,66.55 120.27265796117473,71.5 C115.6935446436984,79.69887454826203 114.99036995535431,80.48897366833965 112.3730559932587,80.37612803372073 C106.07848191145342,80.10473712792802 81.29134800940832,76.96419526356173 78.06623172170077,76.02943679123723 C76.1776591686362,75.48205832885273 74.4302727664177,75.23639390024907 74.18315082788189,75.48351583878465 C73.93602888934608,75.73063777732025 75.14372461458073,77.53860035482333 76.86691910618111,79.50121045545814 C78.59011359778151,81.46382055609295 80.00000000000001,83.71980536569976 80.0,84.51451003236213 C80.0,85.30921469902451 78.25884575818942,88.25988942578917 76.13076835153205,91.07156498072803 C71.91100036833477,96.64684079012895 70.0,101.72592825782857 70.0,107.36601955938931 C70.0,109.36470880172519 69.8875,111.03531885103155 69.75,111.07848633562566 C69.6125,111.12165382021975 65.34174210261358,111.49241171760619 60.25942689469686,111.90239277426218 C55.17711168678013,112.31237383091816 50.75315255092962,112.9135141157371 50.42840659280684,113.23826007385983 C50.10366063468406,113.56300603198257 50.334946276716465,114.7573357510653 50.94237468621219,115.8923261162659 C51.80460230679938,117.50341316237352 62.636430897057586,131.38263261573158 69.5,139.67089241437918 C70.27648386086486,140.60855325406473 73.4057098087569,140.44414799086093 83.5,138.9353515096375 C91.04090105037673,137.80821084352783 105.31921226508688,136.72016573386728 117.5015902814953,136.3443403270021 C136.06476649182986,135.77166779602643 138.65772113097165,135.88265290587918 139.83420868040258,137.30023368081814 C140.56627414497916,138.1823186030789 140.90797133577138,139.71311894763787 140.59353577105193,140.7020122242825 C140.06883968753903,142.3521704362858 138.31488356315242,142.50830146892892 119.26091737214466,142.6009672171091 C103.77050183784657,142.67630223821274 94.7030126454098,143.2475019074078 83.54337098117142,144.8509672171091 C75.31722502081571,146.0329352476991 68.28519834538196,147.0 67.91664503576308,147.0 C67.5480917261442,147.0 61.90357478461705,140.38110658032838 55.37327405459165,132.29134795628528 z" fill="black" />
  <path d="M83.7756268669998,115.40689973055262 C82.82577956565935,113.3222119874805 82.88573826155779,112.29426538660854 84.08143937637767,110.16397500030888 C84.89945880942084,108.70657154687088 86.374260982556,107.35902280469863 87.35877753890024,107.16942223992609 C89.7826496292353,106.7026271268298 93.0,109.79046402788056 93.0,112.58355899068351 C93.0,117.92414923272918 85.91114976593055,120.09386194665638 83.7756268669998,115.40689973055262 z" fill="black" />
  <path d="M93.11641729537288,98.11641729537288 C90.68768163326227,95.68768163326227 91.42049138021179,91.42581459092237 94.6282318814403,89.3240222906523 C96.7889194844277,87.90828539874701 97.23196571193493,87.92196990498677 99.60644085824126,89.47778577530983 C101.7998549033038,90.91496585563462 102.11464803874776,91.6858943585992 101.59296973223958,94.34279570879377 C100.54145213776076,99.6981621897658 96.49816642172135,101.49816642172135 93.11641729537288,98.11641729537288 z" fill="black" />
</svg>